<?xml version="1.0" encoding="UTF-8" standalone="no"?>
<svg
   xmlns:dc="http://purl.org/dc/elements/1.1/"
   xmlns:cc="http://creativecommons.org/ns#"
   xmlns:rdf="http://www.w3.org/1999/02/22-rdf-syntax-ns#"
   xmlns:svg="http://www.w3.org/2000/svg"
   xmlns="http://www.w3.org/2000/svg"
   id="svg8"
   version="1.1"
   viewBox="0 0 132.29166 132.29167"
   height="500"
   width="500">
  <defs
     id="defs2" />
  <metadata
     id="metadata5">
    <rdf:RDF>
      <cc:Work
         rdf:about="">
        <dc:format>image/svg+xml</dc:format>
        <dc:type
           rdf:resource="http://purl.org/dc/dcmitype/StillImage" />
        <dc:title></dc:title>
      </cc:Work>
    </rdf:RDF>
  </metadata>
  <g
     transform="translate(0,-164.70832)"
     id="layer1">
    <path
       style="opacity:1;fill:#0c55f2;fill-opacity:1;fill-rule:evenodd;stroke:none;stroke-width:0.44979167;stroke-linecap:square;stroke-linejoin:round;stroke-miterlimit:4;stroke-dasharray:none;stroke-opacity:1;paint-order:markers fill stroke"
       d="m -1352.3199,-509.2942 c -3.6729,0.0113 -4.998,0.008 -8.4084,0.004 -7.9725,-0.004 -7.9725,-0.004 -7.9725,7.94447 v 6.62007 c 7.6725,-0.003 8.4561,-0.0334 13.3015,0.003 14.4647,-3e-5 28.5719,11.72594 28.5719,26.19065 0,12.67336 -11.4632,23.54716 -23.9365,25.79015 v -38.28603 h -17.9049 v 35.06349 l -0.032,-0.0181 0.01,10.29212 c 0.01,7.93407 0.01,7.93407 7.9346,7.91663 3.4621,-0.006 4.7384,-0.002 8.4374,0.004 22.5123,2.6e-4 40.7623,-18.24952 40.7623,-40.76186 0,-22.51234 -18.25,-40.76211 -40.7623,-40.76185 z"
       id="path4992" />
    <path
       id="path4943"
       d="m -1029.5543,-197.8329 a 41.121627,41.121627 0 0 0 -14.155,9.21545 41.121627,41.121627 0 0 0 -4.2823,5.11399 c 5.7478,6.87995 9.2129,15.73524 9.2129,25.40203 0,9.02377 -3.0201,17.338 -8.0976,24.0011 a 41.121627,41.121627 0 0 0 3.1663,3.63782 41.121627,41.121627 0 0 0 43.6039,9.33785 41.121627,41.121627 0 0 0 43.60377,-9.33785 41.121627,41.121627 0 0 0 0,-58.15494 41.121627,41.121627 0 0 0 -14.15577,-9.21545 l -10.53692,10.53678 a 26.421746,26.421746 0 0 1 12.10208,6.87596 26.421746,26.421746 0 0 1 0,37.366 26.421746,26.421746 0 0 1 -11.68254,6.75978 41.121627,41.121627 0 0 0 4.41423,-8.34388 l -10.51811,-10.51799 a 26.421746,26.421746 0 0 1 -6.87483,12.10209 26.421746,26.421746 0 0 1 -6.35191,4.68508 26.421746,26.421746 0 0 1 -6.3529,-4.68508 26.421746,26.421746 0 0 1 -6.8737,-12.10209 l -10.5181,10.51799 a 41.121627,41.121627 0 0 0 4.4126,8.34388 26.421746,26.421746 0 0 1 -11.6807,-6.75978 26.421746,26.421746 0 0 1 0,-37.366 26.421746,26.421746 0 0 1 12.0999,-6.87596 z m -17.322,63.73257 a 41.121627,41.121627 0 0 1 -1.1153,-49.40313 c -7.2734,-8.70283 -18.2041,-14.24284 -30.4318,-14.24274 v 8.8e-4 c -5.4888,0.007 -10.9141,1.17257 -15.932,3.39504 v 14.34096 c 3.9166,-2.32304 8.3828,-3.554 12.9369,-3.56455 14.0676,0 25.6836,11.40411 25.6836,25.47203 0,12.32593 -9.0449,22.88064 -21.1763,25.062 v -31.12393 c 0,-6.11196 10e-5,-6.11216 -6.1027,-6.11216 h -5.2556 c -6.0486,-0.007 -6.0485,-0.007 -6.0475,6.06202 0.01,14.16064 -0.05,28.25045 -0.05,42.38894 5.0206,2.21271 10.4457,3.35881 15.9325,3.36677 12.8706,1.4e-4 24.3032,-6.13829 31.547,-15.64247 z"
       style="opacity:1;fill:#0a54f1;fill-opacity:1;fill-rule:evenodd;stroke:none;stroke-width:0.44627744;stroke-linecap:square;stroke-linejoin:round;stroke-miterlimit:4;stroke-dasharray:none;stroke-opacity:1;paint-order:markers fill stroke" />
    <path
       id="path4845"
       d="m -1665.9272,-399.38416 c -3.673,0.0113 -4.9979,0.008 -8.4083,0.004 -7.9725,-0.004 -7.9726,-0.004 -7.9726,7.94474 v 6.61975 c 7.6725,-0.003 8.4561,-0.0333 13.3015,0.003 9.9388,0 19.7087,5.53607 24.8496,13.69272 h 17.0372 c -5.2771,-16.39761 -20.6553,-28.26361 -38.8074,-28.2634 z m 38.8074,28.26443 c 1.2676,3.93883 1.9549,8.13819 1.9549,12.49847 0,5.28698 -1.0066,10.33864 -2.8385,14.97428 l 10.528,17.90588 c 4.9396,7.90792 4.9791,7.9375 10.2712,7.87136 5.4653,0.0338 5.4677,0.0228 10.3255,-7.89101 l 1.2087,-2.05828 1.2097,2.06037 c 5.1457,7.80507 5.1853,7.82663 9.9018,7.86926 5.0692,-0.0196 5.0938,0.006 10.0355,-7.87445 l 42.7116,-73.60634 h -16.7602 l -35.8944,62.17139 -6.6157,-11.45926 c -2.6263,-4.54893 -6.6135,-4.44019 -9.173,-0.007 -2.4712,4.28035 -4.8234,8.35422 -6.9495,12.03648 -6.6371,-11.49745 -13.2755,-22.99436 -19.9135,-34.49143 z m -0.8836,27.47275 -15.3696,-26.13899 c 1.8611,3.38683 2.9383,7.17074 2.9383,11.16418 0,12.67335 -11.4632,23.52548 -23.9365,25.76846 v -38.28603 h -17.9049 v 35.06348 l -0.032,-0.0181 0.01,10.31356 c 0.01,7.93409 0.01,7.93427 7.935,7.91684 3.4621,-0.006 4.7382,-0.002 8.4372,0.004 17.2253,2.1e-4 31.9552,-10.68443 37.9238,-25.78756 z m -15.3696,-26.13899 c -0.2474,-0.45013 -0.5069,-0.894 -0.7814,-1.32963 z"
       style="opacity:1;fill:#0c55f2;fill-opacity:1;fill-rule:evenodd;stroke:none;stroke-width:0.44979167;stroke-linecap:square;stroke-linejoin:round;stroke-miterlimit:4;stroke-dasharray:none;stroke-opacity:1;paint-order:markers fill stroke" />
    <path
       id="path4825"
       d="m -1271.552,-399.38984 -35.8945,62.17142 -5.3066,-9.19171 c -3.7264,11.88241 -12.7474,21.42035 -24.2982,25.85424 -0.8763,-1.16509 -1.9164,-2.82247 -3.4045,-5.20486 l -4.8772,-8.38295 c -1.5567,0.5634 -3.1519,1.00028 -4.7651,1.29037 v -9.48055 l -16.7592,-28.80547 h -1.1456 v 35.06348 l -0.032,-0.0181 0.01,10.31356 c 0.01,7.93409 0.01,7.93427 7.9349,7.91684 3.4621,-0.006 4.7382,-0.002 8.4372,0.004 5.1463,6e-5 10.0684,-0.9562 14.6022,-2.69647 2.0326,2.70275 3.1692,2.71272 6.8673,2.6665 5.4652,0.0338 5.4677,0.0228 10.3254,-7.89099 l 1.2087,-2.05827 1.2098,2.06033 c 5.1456,7.80513 5.1853,7.82667 9.9017,7.8693 5.0692,-0.0196 5.0939,0.006 10.0356,-7.87445 l 42.7115,-73.60637 z m -78.5461,57.05596 4.7651,8.19018 c 4.5415,-1.6437 8.7446,-4.38732 12.052,-7.86773 1.0321,1.78782 2.0644,3.57566 3.0964,5.3635 2.1261,-3.68226 4.4783,-7.75663 6.9494,-12.03698 2.5596,-4.43349 6.5463,-4.5417 9.1726,0.007 l 1.309,2.26755 c 1.2091,-3.85545 1.8619,-7.95684 1.8619,-12.21113 -1e-4,-22.51233 -18.25,-40.76213 -40.7624,-40.76186 v -10e-4 c -3.6729,0.0113 -4.9978,0.008 -8.4082,0.004 -7.9726,-0.004 -7.9727,-0.004 -7.9727,7.94422 v 6.62028 c 7.6725,-0.003 8.4561,-0.0333 13.3015,0.003 14.4647,-3e-5 28.572,11.72596 28.5719,26.19066 0,6.2525 -2.7953,12.05904 -7.12,16.60985 -5.6052,-9.70926 -11.2108,-19.41835 -16.8165,-29.12742 z"
       style="opacity:1;fill:#0c55f2;fill-opacity:1;fill-rule:evenodd;stroke:none;stroke-width:0.44979167;stroke-linecap:square;stroke-linejoin:round;stroke-miterlimit:4;stroke-dasharray:none;stroke-opacity:1;paint-order:markers fill stroke" />
    <path
       id="path4781"
       d="m -1398.9268,-399.39054 -35.8944,62.1714 -6.6156,-11.45925 c -2.6264,-4.54893 -6.6135,-4.44071 -9.1731,-0.007 -2.4712,4.28035 -4.8234,8.35473 -6.9495,12.03699 -0.6491,-1.12452 -1.2985,-2.24894 -1.9476,-3.37344 -2.3859,4.64441 -5.638,8.77036 -9.5421,12.16618 l -8.2863,-14.24254 c -4.4482,4.71783 -10.5388,8.1011 -16.8967,9.2444 v -38.28604 h -17.9048 v 35.0635 l -0.032,-0.0181 0.01,10.3141 c 0.01,7.93406 0.01,7.93375 7.9344,7.91631 3.4621,-0.006 4.7382,-0.002 8.4372,0.004 10.2312,10e-5 19.582,-3.76902 26.7395,-9.99474 l 1.218,2.09393 c 4.9396,7.90792 4.9791,7.9375 10.2712,7.87135 5.4653,0.0338 5.4677,0.0228 10.3255,-7.89099 l 1.2087,-2.05827 1.2097,2.06034 c 5.1457,7.8051 5.1853,7.82666 9.9017,7.86929 5.0692,-0.0196 5.0939,0.006 10.0356,-7.87446 l 42.7116,-73.60636 z m -95.3053,28.25047 16.8967,29.04112 c 4.2785,-4.53795 7.0379,-10.31008 7.0399,-16.52353 0,-0.0294 -10e-4,-0.0585 0,-0.0879 3.5966,6.22927 7.1938,12.45828 10.79,18.68774 2.8644,-5.57631 4.4819,-11.89864 4.4819,-18.59886 0,-22.51235 -18.2505,-40.76212 -40.7629,-40.76185 v -10e-4 c -3.6729,0.0113 -4.9978,0.008 -8.4082,0.004 -7.9726,-0.004 -7.9727,-0.003 -7.9727,7.94525 v 6.62027 c 7.6725,-0.003 8.4561,-0.0342 13.3015,0.003 14.435,-3e-5 28.5126,11.67806 28.5704,26.10177 -2.3921,-4.14299 -4.7838,-8.2862 -7.1758,-12.42922 z"
       style="opacity:1;fill:#0c55f2;fill-opacity:1;fill-rule:evenodd;stroke:none;stroke-width:0.44979167;stroke-linecap:square;stroke-linejoin:round;stroke-miterlimit:4;stroke-dasharray:none;stroke-opacity:1;paint-order:markers fill stroke" />
    <path
       id="path4708"
       d="m -1827.9489,-203.59155 v 14.77946 c 7.4386,-0.14375 8.6198,-0.19743 13.3015,-0.20825 14.4647,-3e-5 28.5719,11.72593 28.5719,26.19065 0,12.67336 -11.4633,23.52546 -23.9366,25.76846 v -38.28605 h -17.9048 v 35.0635 l -0.032,-0.0181 0.016,18.24799 c 10.7175,-0.0264 10.7238,-0.0222 16.3649,-0.014 17.1977,2.1e-4 31.9067,-10.65048 37.8938,-25.71522 l -16.0176,-27.53061 h 16.7592 l 0.3844,0.66611 c -5.0662,-16.74873 -20.6177,-28.9442 -39.0198,-28.94398 -5.6431,0.0173 -5.7439,0 -16.3809,0 z m 55.4007,28.94398 c 1.1316,3.74089 1.7425,7.70769 1.7425,11.81788 0,5.31463 -1.0183,10.39114 -2.8685,15.04662 l 10.3838,17.84802 c 4.9396,7.90792 4.9791,7.93697 10.2712,7.87083 5.4654,0.0338 5.4678,0.0234 10.3255,-7.89049 l 9.5891,-16.33077 9.5896,16.33233 c 5.1457,7.80511 5.1853,7.82723 9.9017,7.8698 5.0692,-0.0196 5.0939,0.006 10.0356,-7.87445 l 42.7116,-73.60687 h -16.7602 l -35.8945,62.17192 -11.2045,-19.40761 -8.3798,-14.51332 -8.3799,14.51332 -11.2603,19.5032 -0.2739,0.4744 -0.2733,-0.4744 z"
       style="opacity:1;fill:#0c55f2;fill-opacity:1;fill-rule:evenodd;stroke:none;stroke-width:0.44979167;stroke-linecap:square;stroke-linejoin:round;stroke-miterlimit:4;stroke-dasharray:none;stroke-opacity:1;paint-order:markers fill stroke" />
    <path
       id="path4651"
       d="m -1472.7602,-203.62823 v 14.77893 c 7.4387,-0.14375 8.6198,-0.19693 13.3016,-0.20775 14.4647,-2e-5 26.1906,11.72594 26.1906,26.19066 0,6.2898 -2.6479,12.12918 -6.8357,16.692 l 2.8287,5.02812 0.2672,0.47593 0.2682,-0.47593 11.0091,-19.57038 8.1887,-14.55674 c -5.2492,-16.44502 -20.6515,-28.35506 -38.8374,-28.35484 -5.6432,0.0173 -5.7439,0 -16.381,0 z m 55.2184,28.35484 c 1.2488,3.91231 1.9249,8.08053 1.9249,12.407 0,18.09861 -11.7965,33.43923 -28.1192,38.75992 l 1.1638,2.05258 h 5.5645 5.5655 l 13.9046,-24.09827 13.9051,24.09827 5.1517,-0.0196 5.3335,0.0196 46.2375,-81.57434 h -16.3861 l -35.094,62.38533 -10.9544,-19.47375 -8.1928,-14.56397 h -5e-4 z m -26.1943,51.16692 -8.0811,-14.2534 c -1.5123,0.5502 -3.0709,0.97653 -4.6581,1.26193 v -9.47798 l -16.2849,-28.7233 0.032,34.97874 -0.032,-0.0181 0.016,18.24747 c 10.7175,-0.0264 10.7239,-0.0217 16.3649,-0.0134 4.4138,6e-5 8.6626,-0.7044 12.6432,-2.00194 z m -29.0241,-51.19275 16.2838,0.0196 -5e-4,-0.001 z m 16.2838,0.0196 10e-4,0.002 v -0.002 z m 10e-4,0.002 v 28.7021 l 4.6581,8.21605 c 4.4739,-1.62779 8.537,-4.35356 11.7135,-7.81452 z"
       style="fill:#0c55f2;fill-opacity:1;fill-rule:evenodd;stroke-width:0.26458329" />
    <path
       id="path4621"
       d="m -1642.3227,-203.59164 v 14.77894 c 7.4387,-0.14375 8.6199,-0.19693 13.3016,-0.20775 12.4909,0 22.9387,8.74477 25.5576,20.44578 l 13.9201,24.11068 c 2.7905,-5.51934 4.3646,-11.75848 4.3646,-18.36581 -1e-4,-22.51234 -18.2501,-40.7621 -40.7624,-40.76184 h -5e-4 c -5.6431,0.0172 -5.7439,0 -16.381,0 z m 52.7793,59.12765 c -2.3962,4.73933 -5.6893,8.94729 -9.6584,12.39975 l 6.1583,9.96424 h 5.7113 5.7118 l 14.271,-24.01557 14.2709,24.01557 5.2876,-0.0196 5.474,0.0196 47.455,-81.49164 h -16.8176 l -36.0179,62.38534 -11.2433,-19.47376 -8.4082,-14.56396 h -6e-4 l -8.4087,14.56396 -11.2991,19.57038 -0.2749,0.47593 -0.2744,-0.47593 z m -9.6584,12.39975 -8.7731,-15.19494 c -3.8616,5.21428 -9.6326,8.97896 -16.4109,10.19784 v -38.28603 h -17.9049 v 35.06348 l -0.032,-0.018 0.016,18.248 c 10.7176,-0.0265 10.7244,-0.0222 16.3655,-0.014 10.2314,1.1e-4 19.5819,-3.77026 26.7395,-9.9963 z m -8.7731,-15.19494 c 3.2445,-4.38097 5.1425,-9.78424 5.1444,-15.57062 0,-1.97371 -0.2192,-3.89596 -0.633,-5.74487 l -3.8509,-6.66935 h -16.8171 z"
       style="opacity:1;fill:#0c55f2;fill-opacity:1;fill-rule:evenodd;stroke:none;stroke-width:0.44979167;stroke-linecap:square;stroke-linejoin:round;stroke-miterlimit:4;stroke-dasharray:none;stroke-opacity:1;paint-order:markers fill stroke" />
    <path
       id="path834"
       d="m -714.93675,-321.11837 c -5.6431,0.0173 -5.74387,0 -16.38091,0 v 14.77913 c 7.43865,-0.14375 8.61981,-0.19711 13.30151,-0.20793 14.46471,-3e-5 26.19068,11.72594 26.19065,26.19065 -0.004,12.67336 -9.08198,23.52546 -21.55527,25.76845 v -38.28603 h -17.90485 v 35.06349 l -0.032,-0.0181 0.0159,18.24789 c 10.71746,-0.0264 10.72398,-0.0221 16.36504,-0.0138 22.51234,2.6e-4 40.76235,-18.24952 40.76237,-40.76186 -3e-5,-22.51234 -18.25003,-40.76211 -40.76237,-40.76185 z"
       style="opacity:1;fill:#0c55f2;fill-opacity:1;fill-rule:evenodd;stroke:none;stroke-width:0.44979167;stroke-linecap:square;stroke-linejoin:round;stroke-miterlimit:4;stroke-dasharray:none;stroke-opacity:1;paint-order:markers fill stroke" />
    <path
       style="opacity:1;fill:#0c55f2;fill-opacity:1;fill-rule:evenodd;stroke:none;stroke-width:0.44979167;stroke-linecap:square;stroke-linejoin:round;stroke-miterlimit:4;stroke-dasharray:none;stroke-opacity:1;paint-order:markers fill stroke"
       d="m -874.45208,-321.11835 a 40.761906,40.761906 0 0 0 -16.38092,3.49126 v 14.74484 a 26.190603,26.190603 0 0 1 13.30152,-3.6649 26.190603,26.190603 0 0 1 26.19065,26.19065 26.190603,26.190603 0 0 1 -21.55528,25.76845 v -38.28603 h -17.90485 v 35.06349 a 26.190603,26.190603 0 0 1 -0.032,-0.0181 v 14.7717 a 40.761906,40.761906 0 0 0 16.38092,3.46233 40.761906,40.761906 0 0 0 40.76237,-40.76186 40.761906,40.761906 0 0 0 -40.76237,-40.76185 z"
       id="path839" />
    <path
       style="opacity:1;fill:#0c55f2;fill-opacity:1;fill-rule:evenodd;stroke:none;stroke-width:0.44979167;stroke-linecap:square;stroke-linejoin:round;stroke-miterlimit:4;stroke-dasharray:none;stroke-opacity:1;paint-order:markers fill stroke"
       d="m -787.76924,-321.11837 c -5.6431,0.0173 -5.74387,0 -16.38091,0 v 18.2361 c 4.02658,-2.38854 8.61981,-3.65408 13.30151,-3.6649 14.46471,-3e-5 26.19068,11.72594 26.19066,26.19065 -0.004,12.67336 -9.08198,23.52546 -21.55528,25.76845 v -38.28603 h -17.90485 v 35.06349 l -0.032,-0.0181 0.0159,18.24789 c 10.71746,-0.0264 10.72398,-0.0221 16.36504,-0.0138 22.51235,2.6e-4 40.76235,-18.24952 40.76238,-40.76186 -3e-5,-22.51234 -18.25003,-40.76211 -40.76238,-40.76185 z"
       id="path860" />
    <path
       id="path4816"
       d="m -1281.1816,-203.62825 c -3.6729,0.0113 -4.9979,0.008 -8.4083,0.004 -0.9966,-5e-4 -1.8684,-6.8e-4 -2.6314,0.0145 -0.763,0.0151 -1.4171,0.0457 -1.9777,0.10748 -0.5605,0.0618 -1.0276,0.15504 -1.4169,0.29456 -0.3893,0.13952 -0.7007,0.32534 -0.9498,0.57361 -0.2492,0.24826 -0.4361,0.55867 -0.5762,0.94671 -0.1402,0.38804 -0.2339,0.85399 -0.2961,1.41283 -0.062,0.55885 -0.093,1.21077 -0.1091,1.97146 -0.015,0.76069 -0.015,1.63005 -0.015,2.62361 v 6.62027 c 7.6725,-0.003 8.4562,-0.0338 13.3016,0.003 0.8428,0 1.674,0.0472 2.4965,0.12506 0.4152,0.0393 0.8226,0.1038 1.232,0.16227 0.3482,0.0497 0.6986,0.0912 1.0423,0.15451 10.3112,1.89901 18.5097,9.83011 20.7868,20.00394 l 2.9791,5.1599 10.9177,18.91046 0.023,0.0403 c 0.3863,-0.76401 0.744,-1.54464 1.0826,-2.33527 0.075,-0.17425 0.1402,-0.35317 0.2124,-0.52866 0.4175,-1.01391 0.7982,-2.04648 1.1343,-3.09954 0.041,-0.12917 0.089,-0.25525 0.1292,-0.385 0.3446,-1.11829 0.6309,-2.26184 0.8795,-3.41892 0.049,-0.22976 0.1,-0.45918 0.1453,-0.69038 0.2266,-1.15231 0.4075,-2.32082 0.5348,-3.50573 0.022,-0.20391 0.036,-0.41015 0.055,-0.61494 0.1151,-1.24822 0.1917,-2.50806 0.1917,-3.78635 v -0.001 c 0,-0.34157 -0.01,-0.68207 -0.013,-1.02163 0,-0.10295 -0.01,-0.20524 -0.011,-0.308 -0.01,-0.24432 -0.016,-0.48853 -0.028,-0.73174 -0.01,-0.0905 -0.011,-0.18042 -0.016,-0.2708 -2e-4,-0.003 -3e-4,-0.006 -5e-4,-0.009 -0.014,-0.24596 -0.029,-0.4916 -0.047,-0.73639 -0.01,-0.0899 -0.015,-0.17944 -0.022,-0.26921 -0.02,-0.24289 -0.041,-0.48546 -0.065,-0.7271 0,-0.0311 0,-0.0625 -0.01,-0.0935 -0.01,-0.0877 -0.021,-0.17449 -0.03,-0.26199 -0.023,-0.21033 -0.046,-0.42059 -0.072,-0.62994 -0.017,-0.135 -0.035,-0.26952 -0.053,-0.40411 -8e-4,-0.006 0,-0.012 0,-0.0181 -0.025,-0.18516 -0.05,-0.37012 -0.077,-0.55448 -0.01,-0.057 -0.015,-0.11464 -0.024,-0.17157 -0.013,-0.0863 -0.029,-0.17171 -0.043,-0.25787 -9e-4,-0.006 0,-0.011 0,-0.0165 -0.029,-0.18261 -0.059,-0.36495 -0.09,-0.54674 -0.023,-0.13359 -0.047,-0.26683 -0.072,-0.39997 -0.037,-0.19864 -0.075,-0.39667 -0.1142,-0.59428 -0.013,-0.0637 -0.024,-0.1281 -0.037,-0.19172 -0.011,-0.0557 -0.024,-0.11077 -0.036,-0.1664 -0.043,-0.20595 -0.088,-0.41119 -0.1338,-0.61599 -0.027,-0.11986 -0.054,-0.23968 -0.082,-0.35915 -0.047,-0.20066 -0.097,-0.40045 -0.1468,-0.59996 -0.03,-0.11897 -0.059,-0.23802 -0.09,-0.35657 -0.052,-0.19844 -0.1061,-0.39598 -0.1607,-0.59324 -0.023,-0.084 -0.044,-0.1689 -0.068,-0.2527 -0.01,-0.032 -0.019,-0.0636 -0.028,-0.0956 -0.062,-0.21613 -0.1268,-0.43079 -0.1923,-0.64544 -0.022,-0.0735 -0.043,-0.14784 -0.066,-0.22118 -0.01,-0.0201 -0.013,-0.0399 -0.02,-0.0599 -8e-4,-0.003 0,-0.006 0,-0.008 -0.075,-0.23874 -0.152,-0.4763 -0.231,-0.71313 -0.019,-0.0568 -0.037,-0.11433 -0.056,-0.17105 0,-0.0102 -0.01,-0.0203 -0.011,-0.0305 -4e-4,-0.001 0,-0.003 0,-0.004 -0.099,-0.29239 -0.2018,-0.58343 -0.3074,-0.87281 -0.01,-0.0125 -0.01,-0.0252 -0.013,-0.0377 -8e-4,-0.002 0,-0.004 0,-0.006 -0.2266,-0.61815 -0.4673,-1.22927 -0.7225,-1.83297 -10e-4,-0.003 0,-0.006 0,-0.008 -0.014,-0.0328 -0.029,-0.0649 -0.043,-0.0977 -0.01,-0.0223 -0.019,-0.0444 -0.029,-0.0667 -0.1,-0.23353 -0.2012,-0.46637 -0.3054,-0.69763 -0.01,-0.0154 -0.013,-0.0311 -0.02,-0.0465 -0.031,-0.069 -0.064,-0.13686 -0.096,-0.20567 -10e-4,-0.002 0,-0.004 0,-0.006 -0.099,-0.2166 -0.1992,-0.43297 -0.3023,-0.64751 -0.033,-0.0694 -0.068,-0.13803 -0.1018,-0.20722 -7e-4,-0.002 0,-0.003 0,-0.005 -0.1024,-0.20984 -0.2063,-0.41955 -0.3121,-0.62735 -0.053,-0.10392 -0.107,-0.20717 -0.1608,-0.31058 -0.093,-0.179 -0.1869,-0.35742 -0.2826,-0.53485 -0.02,-0.0368 -0.038,-0.0744 -0.058,-0.1111 -0.039,-0.0724 -0.081,-0.1434 -0.1204,-0.21549 -0.094,-0.17135 -0.1895,-0.34229 -0.2863,-0.51212 -0.025,-0.0439 -0.049,-0.0885 -0.074,-0.13229 -0.036,-0.0635 -0.075,-0.12585 -0.1116,-0.18913 -0.099,-0.16974 -0.1991,-0.33878 -0.3003,-0.50695 -0.03,-0.05 -0.059,-0.10104 -0.089,-0.1509 -0.035,-0.0584 -0.073,-0.11546 -0.1085,-0.17363 0,-0.003 0,-0.005 0,-0.008 -0.1023,-0.16631 -0.2055,-0.33189 -0.3101,-0.49661 -0.062,-0.0971 -0.1236,-0.1939 -0.186,-0.29042 -8e-4,-0.001 0,-0.002 0,-0.004 -0.1122,-0.17343 -0.2258,-0.34567 -0.3406,-0.51728 -0.036,-0.0545 -0.071,-0.11004 -0.108,-0.16433 -0.027,-0.0401 -0.055,-0.0793 -0.083,-0.11937 -0.1124,-0.16522 -0.2267,-0.32901 -0.3416,-0.49248 -0.045,-0.0644 -0.089,-0.13014 -0.1343,-0.1943 -0.023,-0.0322 -0.047,-0.0635 -0.07,-0.0956 -4e-4,-5.1e-4 -7e-4,-0.001 -10e-4,-0.002 -0.1177,-0.16446 -0.2376,-0.32726 -0.3576,-0.48989 -0.05,-0.068 -0.099,-0.13745 -0.1494,-0.20515 -0.021,-0.0284 -0.043,-0.0559 -0.065,-0.0842 -0.1349,-0.17952 -0.2724,-0.35712 -0.4103,-0.53433 -0.051,-0.0649 -0.1,-0.13071 -0.1509,-0.19534 -0.1698,-0.21564 -0.3421,-0.42921 -0.5162,-0.6413 -0.023,-0.028 -0.045,-0.0568 -0.068,-0.0848 -0.01,-0.008 -0.013,-0.0151 -0.019,-0.0227 -0.1842,-0.22291 -0.3713,-0.4436 -0.5602,-0.66249 -0.02,-0.0229 -0.039,-0.0464 -0.059,-0.0693 -0.4228,-0.48785 -0.857,-0.96531 -1.3022,-1.43247 -0.028,-0.0294 -0.057,-0.0581 -0.085,-0.0873 -0.1928,-0.20118 -0.387,-0.4007 -0.5839,-0.5979 -0.01,-0.007 -0.014,-0.0149 -0.022,-0.0222 -0.043,-0.0432 -0.088,-0.0851 -0.1313,-0.12815 0,-0.003 -0.01,-0.005 -0.01,-0.008 -0.1695,-0.16793 -0.3397,-0.33528 -0.5121,-0.50023 -0.016,-0.0153 -0.031,-0.0312 -0.047,-0.0465 -0.058,-0.0552 -0.1175,-0.10892 -0.1757,-0.16381 -0.1567,-0.14758 -0.3139,-0.29466 -0.4729,-0.43977 -0.023,-0.0208 -0.045,-0.0423 -0.068,-0.0631 -0.053,-0.0483 -0.1078,-0.0946 -0.1612,-0.14262 -0.1656,-0.14893 -0.3317,-0.29716 -0.4997,-0.44339 -0.024,-0.0207 -0.047,-0.0423 -0.071,-0.063 -0.047,-0.0403 -0.094,-0.0793 -0.1411,-0.11938 -0.1705,-0.1464 -0.3417,-0.29201 -0.5147,-0.43563 -0.031,-0.0255 -0.061,-0.0516 -0.091,-0.077 -0.05,-0.0411 -0.1009,-0.0806 -0.1509,-0.12143 0,-0.002 0,-0.003 -0.01,-0.005 -0.1639,-0.13392 -0.3285,-0.26702 -0.4945,-0.39842 -0.084,-0.0667 -0.169,-0.13291 -0.2537,-0.19895 -0.1644,-0.12799 -0.3298,-0.25484 -0.4961,-0.38034 -0.09,-0.0677 -0.18,-0.13505 -0.2703,-0.20206 0,-0.002 -0.01,-0.004 -0.01,-0.007 -0.1574,-0.11671 -0.3157,-0.23228 -0.4749,-0.34675 -0.059,-0.0425 -0.1169,-0.0865 -0.1762,-0.12868 -0.041,-0.029 -0.082,-0.0569 -0.1235,-0.0858 -0.1619,-0.11423 -0.3253,-0.22657 -0.4889,-0.33848 -0.065,-0.0444 -0.1286,-0.0903 -0.1938,-0.13436 -0.035,-0.0238 -0.071,-0.0466 -0.1064,-0.0703 -0.1596,-0.10707 -0.3205,-0.21191 -0.4817,-0.31678 -0.078,-0.0505 -0.1539,-0.10294 -0.232,-0.15296 -0.031,-0.0197 -0.062,-0.0383 -0.093,-0.0579 0,-10e-4 0,-0.003 -0.01,-0.004 -0.1821,-0.11602 -0.3657,-0.22994 -0.5498,-0.34313 -0.079,-0.0487 -0.1581,-0.0981 -0.2377,-0.14625 0,-0.001 0,-0.002 -0.01,-0.004 -0.2004,-0.12125 -0.4026,-0.23971 -0.6052,-0.3576 -0.078,-0.0455 -0.1556,-0.092 -0.234,-0.13694 -0.268,-0.15356 -0.5376,-0.30456 -0.8093,-0.45217 0,-0.003 -0.01,-0.005 -0.015,-0.008 -0.2836,-0.15391 -0.5692,-0.30485 -0.8568,-0.45217 0,0 -5e-4,0 -5e-4,0 -0.2851,-0.14603 -0.5725,-0.28843 -0.8615,-0.42789 -0.01,-0.004 -0.015,-0.008 -0.023,-0.0119 -0.059,-0.0283 -0.1184,-0.0547 -0.1772,-0.0827 0,-9e-4 0,-0.002 -0.01,-0.003 -0.2287,-0.10879 -0.4578,-0.21679 -0.6888,-0.32142 -0.01,-0.004 -0.017,-0.008 -0.025,-0.0119 -0.046,-0.0208 -0.093,-0.0403 -0.1391,-0.061 -0.2373,-0.10624 -0.4754,-0.21083 -0.7152,-0.31264 -0.018,-0.008 -0.036,-0.0161 -0.054,-0.0238 -0.069,-0.0292 -0.139,-0.0564 -0.2082,-0.0853 -0.2079,-0.0866 -0.4162,-0.17208 -0.6258,-0.25528 -0.029,-0.0114 -0.057,-0.0238 -0.086,-0.0351 -0.071,-0.0282 -0.1439,-0.0544 -0.2155,-0.0822 -0.2008,-0.0779 -0.4018,-0.15521 -0.6041,-0.22996 -0.1227,-0.0454 -0.2462,-0.0891 -0.3695,-0.13333 -0.1701,-0.061 -0.3404,-0.12157 -0.5116,-0.18035 -0.1384,-0.0475 -0.2775,-0.0934 -0.4165,-0.13953 -0.1752,-0.058 -0.3508,-0.11531 -0.5271,-0.17105 -0.061,-0.0191 -0.1203,-0.0401 -0.1809,-0.0589 -0.066,-0.0207 -0.1338,-0.0396 -0.2005,-0.0599 -0.1836,-0.0561 -0.3677,-0.11029 -0.5524,-0.16382 -0.07,-0.0203 -0.1391,-0.0426 -0.2093,-0.0625 -0.065,-0.0185 -0.1311,-0.0351 -0.1964,-0.0532 -0.1726,-0.0481 -0.3458,-0.0947 -0.5193,-0.14056 -0.1438,-0.038 -0.2876,-0.0757 -0.432,-0.11214 -0.1805,-0.0456 -0.3617,-0.0891 -0.5432,-0.13229 -0.088,-0.0209 -0.1745,-0.0438 -0.2624,-0.0641 -0.043,-0.01 -0.086,-0.0182 -0.1287,-0.0279 0,-3.6e-4 0,-6.9e-4 0,-0.001 -0.2045,-0.0465 -0.4099,-0.0905 -0.6155,-0.13384 -0.081,-0.017 -0.1608,-0.0361 -0.2418,-0.0527 -0.031,-0.006 -0.063,-0.0117 -0.095,-0.0181 0,-2.1e-4 0,-3.1e-4 0,-5.1e-4 -0.2286,-0.0462 -0.458,-0.09 -0.6878,-0.1323 -0.094,-0.0174 -0.1886,-0.0354 -0.2833,-0.0522 0,-2.8e-4 0,-7.6e-4 0,-0.001 -0.2301,-0.0407 -0.4614,-0.0779 -0.693,-0.11472 -0.1003,-0.016 -0.2001,-0.0328 -0.3007,-0.0481 -0.1686,-0.0255 -0.3382,-0.0479 -0.5075,-0.0713 -0.074,-0.0103 -0.1487,-0.0211 -0.2232,-0.031 -0.075,-0.01 -0.1503,-0.0219 -0.2258,-0.0315 -0.01,-8.8e-4 -0.014,-0.002 -0.021,-0.003 -0.3332,-0.0422 -0.6675,-0.0806 -1.0031,-0.11472 0,0 -5e-4,0 -5e-4,0 -0.3426,-0.0348 -0.6864,-0.0652 -1.0315,-0.0915 -1.0349,-0.0789 -2.0805,-0.11938 -3.1357,-0.11937 z m 36.3983,59.12767 c -0.085,0.16906 -0.1923,0.32475 -0.2801,0.49246 -0.3268,0.62463 -0.6846,1.22944 -1.0423,1.83452 -0.3138,0.53081 -0.6223,1.06323 -0.9591,1.57819 -0.3793,0.57994 -0.7883,1.13763 -1.1958,1.69653 -0.3666,0.50279 -0.7276,1.00796 -1.1162,1.49294 -0.4294,0.53581 -0.8866,1.04698 -1.3421,1.56011 -0.4142,0.4667 -0.8228,0.93623 -1.2578,1.38338 -0.477,0.4904 -0.9805,0.95358 -1.4815,1.41957 -0.3326,0.30922 -0.6407,0.64391 -0.9834,0.94205 l 1.2185,1.98747 c 4.94,8.05947 4.9397,8.05947 10.651,8.05947 5.7118,0 5.712,2.9e-4 10.4831,-8.05638 l 9.4997,-16.0419 9.5126,16.0631 c 4.7584,8.03526 4.7583,8.03513 10.0459,8.01552 5.4741,0.0196 5.474,0.0197 10.1503,-8.01862 l 42.7788,-73.53608 h -16.8176 l -36.018,62.38535 -11.2432,-19.47376 -8.4083,-14.56397 h -5e-4 l -8.4088,14.56397 -11.2991,19.57038 -0.2749,0.47594 -0.2744,-0.47594 z m -9.6583,12.39975 -0.019,-0.032 -8.2331,-14.26012 -0.5214,-0.90278 c -3.4904,4.71297 -8.541,8.24116 -14.485,9.77614 -0.2221,0.0561 -0.444,0.11311 -0.6671,0.16383 -0.087,0.02 -0.1744,0.0377 -0.2615,0.0568 -0.3317,0.0721 -0.664,0.14108 -0.9973,0.20103 v -38.28604 h -17.9049 v 35.0635 l -0.032,-0.0181 0.01,10.31412 c 9e-4,0.99173 0,1.85967 0.018,2.61895 0.016,0.75927 0.048,1.40959 0.1101,1.96731 0.062,0.55774 0.1559,1.02264 0.2956,1.40975 0.1397,0.38709 0.3256,0.69673 0.5736,0.94411 0.2479,0.24742 0.5579,0.43241 0.9451,0.57103 0.3872,0.13861 0.8518,0.23069 1.4092,0.29146 0.5575,0.0608 1.2081,0.0906 1.9669,0.10438 0.7586,0.0138 1.6254,0.0115 2.6163,0.009 3.3044,-0.006 4.724,-0.001 8.0528,0.004 0.1267,1.9e-4 0.2523,-7.1e-4 0.385,-5.3e-4 0.036,0 0.072,-0.005 0.108,-0.005 1.3075,-0.003 2.5994,-0.0715 3.8752,-0.19534 0.4539,-0.044 0.8952,-0.12774 1.3446,-0.18653 0.8507,-0.11134 1.7014,-0.2236 2.5348,-0.38656 0.5152,-0.10075 1.0174,-0.23553 1.5255,-0.35552 0.7505,-0.17724 1.5001,-0.35655 2.2339,-0.57465 0.5209,-0.1548 1.0301,-0.3352 1.5421,-0.51003 0.6962,-0.23781 1.3888,-0.48271 2.0675,-0.75655 0.5129,-0.20696 1.0165,-0.43088 1.5188,-0.65784 0.6536,-0.29538 1.2996,-0.60396 1.9342,-0.93226 0.4911,-0.254 0.9762,-0.51702 1.4553,-0.79012 0.6172,-0.35184 1.2219,-0.72223 1.8185,-1.10485 0.4625,-0.29673 0.9235,-0.59536 1.373,-0.91001 0.5862,-0.41034 1.1536,-0.84433 1.7167,-1.28418 0.4232,-0.33057 0.8503,-0.65632 1.2599,-1.00303 0.1403,-0.11875 0.2928,-0.22305 0.4315,-0.34364 z m -8.7731,-15.19494 c 3.2445,-4.38098 5.1424,-9.78424 5.1443,-15.57063 0,-1.97371 -0.2192,-3.89596 -0.633,-5.74487 l -3.8509,-6.66936 h -16.8171 z"
       style="opacity:1;fill:#0c55f2;fill-opacity:1;fill-rule:evenodd;stroke:none;stroke-width:0.44979167;stroke-linecap:square;stroke-linejoin:round;stroke-miterlimit:4;stroke-dasharray:none;stroke-opacity:1;paint-order:markers fill stroke" />
    <rect
       y="-214.49663"
       x="-919.17303"
       height="7.9375"
       width="7.9375"
       id="rect4743"
       style="fill:#ff1700;fill-opacity:0.569395;fill-rule:evenodd;stroke-width:0.26458332" />
    <path
       style="fill:#0c55f2;fill-opacity:1;fill-rule:evenodd;stroke-width:0.26458329"
       d="m -1745.6489,-399.36938 -35.8944,62.1714 -6.6159,-11.45921 c -2.6263,-4.54893 -6.6133,-4.44048 -9.1729,-0.007 -2.4711,4.28035 -4.8233,8.35435 -6.9494,12.03661 -6.6371,-11.49745 -13.2755,-22.99424 -19.9135,-34.49131 h -16.7592 l 26.4015,45.37864 c 4.9396,7.90792 4.9791,7.9375 10.2712,7.87135 5.4653,0.0338 5.4678,0.0228 10.3255,-7.89099 l 1.2087,-2.05827 1.2098,2.06034 c 5.1456,7.8051 5.1853,7.82666 9.9017,7.86929 5.0692,-0.0196 5.0939,0.006 10.0355,-7.87448 l 42.7116,-73.60634 z"
       id="path4831" />
    <path
       id="path4833"
       d="m -1881.7166,-399.3833 c -3.6729,0.0113 -4.998,0.008 -8.4084,0.004 -7.9725,-0.004 -7.9725,-0.004 -7.9725,7.94447 v 6.62007 c 7.6725,-0.003 8.4561,-0.0334 13.3015,0.003 14.4647,-3e-5 28.5719,11.72594 28.5719,26.19065 0,12.67336 -11.4632,23.52546 -23.9365,25.76845 v -38.28603 h -17.9049 v 35.06349 l -0.032,-0.0181 0.01,10.31382 c 0.01,7.93407 0.01,7.93407 7.9346,7.91663 3.4621,-0.006 4.7384,-0.002 8.4374,0.004 22.5123,2.6e-4 40.7623,-18.24952 40.7623,-40.76186 0,-22.51234 -18.25,-40.76211 -40.7623,-40.76185 z"
       style="opacity:1;fill:#0c55f2;fill-opacity:1;fill-rule:evenodd;stroke:none;stroke-width:0.44979167;stroke-linecap:square;stroke-linejoin:round;stroke-miterlimit:4;stroke-dasharray:none;stroke-opacity:1;paint-order:markers fill stroke" />
    <path
       style="opacity:1;fill:#0a54f1;fill-opacity:0.58039216;fill-rule:evenodd;stroke:none;stroke-width:0.4497917;stroke-linecap:square;stroke-linejoin:round;stroke-miterlimit:4;stroke-dasharray:none;stroke-opacity:1;paint-order:markers fill stroke"
       d="m -1155.708,-29.190284 a 19.580936,19.580936 0 0 0 -7.869,1.677108 v 7.083028 a 12.58127,12.58127 0 0 1 6.3897,-1.760518 12.58127,12.58127 0 0 1 12.5813,12.5812885 12.58127,12.58127 0 0 1 -12.5813,12.58129 12.58127,12.58127 0 0 1 -6.3897,-1.75952 v 7.09593 a 19.580936,19.580936 0 0 0 7.869,1.6632105 19.580936,19.580936 0 0 0 19.5811,-19.5809105 19.580936,19.580936 0 0 0 -19.5811,-19.5809065 z"
       id="path4891" />
    <path
       id="path4893"
       d="m -1111.0893,3.7448725 a 19.580936,19.580936 0 0 0 4.3783,-6.75008 l -5.0085,-5.00846 a 12.58127,12.58127 0 0 1 -3.2733,5.76306 12.58127,12.58127 0 0 1 -17.7926,0 12.58127,12.58127 0 0 1 0,-17.7926205 12.58127,12.58127 0 0 1 5.7623,-3.274029 l -5.0175,-5.017586 a 19.580936,19.580936 0 0 0 -6.7403,4.388131 19.580936,19.580936 0 0 0 -2e-4,27.6917645 19.580936,19.580936 0 0 0 27.6918,-1.8e-4 z"
       style="opacity:1;fill:#0a54f1;fill-opacity:0.58039216;fill-rule:evenodd;stroke:none;stroke-width:0.4497917;stroke-linecap:square;stroke-linejoin:round;stroke-miterlimit:4;stroke-dasharray:none;stroke-opacity:1;paint-order:markers fill stroke" />
    <path
       style="opacity:1;fill:#0a54f1;fill-opacity:0.58039216;fill-rule:evenodd;stroke:none;stroke-width:0.4497917;stroke-linecap:square;stroke-linejoin:round;stroke-miterlimit:4;stroke-dasharray:none;stroke-opacity:1;paint-order:markers fill stroke"
       d="m -1124.9463,3.7448725 a 19.580936,19.580936 0 0 1 -4.3783,-6.75008 l 5.0084,-5.00846 a 12.58127,12.58127 0 0 0 3.2733,5.76306 12.58127,12.58127 0 0 0 17.7927,0 12.58127,12.58127 0 0 0 0,-17.7926205 12.58127,12.58127 0 0 0 -5.7624,-3.274029 l 5.0176,-5.017585 a 19.580936,19.580936 0 0 1 6.7403,4.38813 19.580936,19.580936 0 0 1 10e-5,27.6917645 19.580936,19.580936 0 0 1 -27.6917,-1.8e-4 z"
       id="path4895" />
    <path
       id="path4897"
       d="m -1155.708,-29.189973 a 19.580936,19.580936 0 0 0 -7.869,1.677109 v 7.083026 a 12.58127,12.58127 0 0 1 6.3897,-1.760516 12.58127,12.58127 0 0 1 12.5813,12.5812865 12.58127,12.58127 0 0 1 -10.3546,12.37848 V -15.622178 h -8.601 V 1.2213925 a 12.58127,12.58127 0 0 1 -0.015,-0.009 v 7.09593 a 19.580936,19.580936 0 0 0 7.869,1.6632105 19.580936,19.580936 0 0 0 19.5811,-19.5809405 19.580936,19.580936 0 0 0 -19.5811,-19.5809045 z"
       style="opacity:1;fill:#0a54f1;fill-opacity:1;fill-rule:evenodd;stroke:none;stroke-width:0.4497917;stroke-linecap:square;stroke-linejoin:round;stroke-miterlimit:4;stroke-dasharray:none;stroke-opacity:1;paint-order:markers fill stroke" />
    <path
       id="path4977"
       d="m -1546.4504,-509.28029 -35.8944,62.1714 -6.6159,-11.45921 c -2.6263,-4.54893 -6.6133,-4.44048 -9.1729,-0.007 -2.4711,4.28035 -4.8233,8.35435 -6.9494,12.03661 -6.6371,-11.49745 -13.2755,-22.99424 -19.9135,-34.49131 h -16.7592 l 26.4015,45.37864 c 4.9396,7.90792 4.9791,7.9375 10.2712,7.87135 5.4653,0.0338 5.4678,0.0228 10.3255,-7.89099 l 1.2087,-2.05827 1.2098,2.06034 c 5.1456,7.8051 5.1853,7.82666 9.9017,7.86929 5.0692,-0.0196 5.0939,0.006 10.0355,-7.87448 l 42.7116,-73.60634 z"
       style="fill:#0c55f2;fill-opacity:1;fill-rule:evenodd;stroke-width:0.26458329" />
    <path
       style="opacity:1;fill:#0c55f2;fill-opacity:1;fill-rule:evenodd;stroke:none;stroke-width:0.44979167;stroke-linecap:square;stroke-linejoin:round;stroke-miterlimit:4;stroke-dasharray:none;stroke-opacity:1;paint-order:markers fill stroke"
       d="m -1663.6354,-509.2942 c -3.6729,0.0113 -4.998,0.008 -8.4084,0.004 -7.9725,-0.004 -7.9725,-0.004 -7.9725,7.94447 v 6.62007 c 7.6725,-0.003 8.4561,-0.0334 13.3015,0.003 14.4647,-3e-5 28.5719,11.72594 28.5719,26.19065 0,12.67336 -11.4632,23.52546 -23.9365,25.76845 v -38.28603 h -17.9049 v 35.06349 l -0.032,-0.0181 0.01,10.31382 c 0.01,7.93407 0.01,7.93407 7.9346,7.91663 3.4621,-0.006 4.7384,-0.002 8.4374,0.004 22.5123,2.6e-4 40.7623,-18.24952 40.7623,-40.76186 0,-22.51234 -18.25,-40.76211 -40.7623,-40.76185 z"
       id="path4979" />
    <path
       style="fill:#0c55f2;fill-opacity:1;fill-rule:evenodd;stroke-width:0.26458329"
       d="m -1402.1361,-509.28029 -35.8944,62.1714 -6.6159,-11.45921 c -2.6263,-4.54893 -6.6133,-4.44048 -9.1729,-0.007 -2.4711,4.28035 -4.8233,8.35435 -6.9494,12.03661 -6.6371,-11.49745 -13.2755,-22.99424 -19.9135,-34.49131 h -16.7592 l 26.4015,45.37864 c 4.9396,7.90792 4.9791,7.9375 10.2712,7.87135 5.4653,0.0338 5.4678,0.0228 10.3255,-7.89099 l 1.2087,-2.05827 1.2098,2.06034 c 5.1456,7.8051 5.1853,7.82666 9.9017,7.86929 5.0692,-0.0196 5.0939,0.006 10.0355,-7.87448 l 42.7116,-73.60634 z"
       id="path4986" />
    <path
       id="path4988"
       d="m -1498.9974,-509.2942 c -3.6729,0.0113 -4.998,0.008 -8.4084,0.004 -7.9725,-0.004 -7.9725,-0.004 -7.9725,7.94447 v 6.62007 c 7.6725,-0.003 8.4561,-0.0334 13.3015,0.003 14.4647,-3e-5 28.5719,11.72594 28.5719,26.19065 0,12.67336 -11.4632,23.52546 -23.9365,25.76845 v -38.26743 h -17.9049 v 35.04489 l -0.032,-0.0181 0.01,10.31382 c 0.01,7.93407 0.01,7.93407 7.9346,7.91663 3.4621,-0.006 4.7384,-0.002 8.4374,0.004 22.5123,2.6e-4 40.7623,-18.24952 40.7623,-40.76186 0,-22.51234 -18.25,-40.76211 -40.7623,-40.76185 z"
       style="opacity:1;fill:#0c55f2;fill-opacity:1;fill-rule:evenodd;stroke:none;stroke-width:0.44979167;stroke-linecap:square;stroke-linejoin:round;stroke-miterlimit:4;stroke-dasharray:none;stroke-opacity:1;paint-order:markers fill stroke" />
    <path
       id="path4990"
       d="m -1272.219,-509.28029 -35.8944,62.1714 -6.6159,-11.45921 c -2.6263,-4.54893 -6.6133,-4.44048 -9.1729,-0.007 -2.4711,4.28035 -4.8233,8.35435 -6.9494,12.03661 -6.6371,-11.49745 -13.2755,-22.99424 -19.9135,-34.49131 h -16.7592 l 26.4015,45.37864 c 4.9396,7.90792 4.9791,7.9375 10.2712,7.87135 5.4653,0.0338 5.4678,0.0228 10.3255,-7.89099 l 1.2087,-2.05827 1.2098,2.06034 c 5.1456,7.8051 5.1853,7.82666 9.9017,7.86929 5.0692,-0.0196 5.0939,0.006 10.0355,-7.87448 l 42.7116,-73.60634 z"
       style="fill:#0c55f2;fill-opacity:1;fill-rule:evenodd;stroke-width:0.26458329" />
    <path
       id="path4994"
       d="m -1352.3199,-608.77753 c -3.6729,0.0113 -4.998,0.008 -8.4084,0.004 -7.9725,-0.004 -7.9725,-0.004 -7.9725,7.94447 v 6.62007 c 7.6725,-0.003 8.4561,-0.0334 13.3015,0.003 14.4647,-3e-5 28.5719,11.72594 28.5719,26.19065 0,12.67336 -11.4632,23.54716 -23.9365,25.79015 v -38.28603 h -17.9049 v 35.06349 l -0.032,-0.0181 0.01,10.29212 c 0.01,7.93407 0.01,7.93407 7.9346,7.91663 3.4621,-0.006 4.7384,-0.002 8.4374,0.004 22.5123,2.6e-4 40.7623,-18.24952 40.7623,-40.76186 0,-22.51234 -18.25,-40.76211 -40.7623,-40.76185 z"
       style="opacity:1;fill:#0c55f2;fill-opacity:0.78431373;fill-rule:evenodd;stroke:none;stroke-width:0.44979167;stroke-linecap:square;stroke-linejoin:round;stroke-miterlimit:4;stroke-dasharray:none;stroke-opacity:1;paint-order:markers fill stroke" />
    <path
       style="fill:#0c55f2;fill-opacity:0.78431373;fill-rule:evenodd;stroke-width:0.26458329"
       d="m -1546.4504,-608.76362 -35.8944,62.1714 -6.6159,-11.45921 c -2.6263,-4.54893 -6.6133,-4.44048 -9.1729,-0.007 -2.4711,4.28035 -4.8233,8.35435 -6.9494,12.03661 -6.6371,-11.49745 -13.2755,-22.99424 -19.9135,-34.49131 h -16.7592 l 26.4015,45.37864 c 4.9396,7.90792 4.9791,7.9375 10.2712,7.87135 5.4653,0.0338 5.4678,0.0228 10.3255,-7.89099 l 1.2087,-2.05827 1.2098,2.06034 c 5.1456,7.8051 5.1853,7.82666 9.9017,7.86929 5.0692,-0.0196 5.0939,0.006 10.0355,-7.87448 l 42.7116,-73.60634 z"
       id="path4996" />
    <path
       id="path4998"
       d="m -1663.6354,-608.77753 c -3.6729,0.0113 -4.998,0.008 -8.4084,0.004 -7.9725,-0.004 -7.9725,-0.004 -7.9725,7.94447 v 6.62007 c 7.6725,-0.003 8.4561,-0.0334 13.3015,0.003 14.4647,-3e-5 28.5719,11.72594 28.5719,26.19065 0,12.67336 -11.4632,23.52546 -23.9365,25.76845 v -38.28603 h -17.9049 v 35.06349 l -0.032,-0.0181 0.01,10.31382 c 0.01,7.93407 0.01,7.93407 7.9346,7.91663 3.4621,-0.006 4.7384,-0.002 8.4374,0.004 22.5123,2.6e-4 40.7623,-18.24952 40.7623,-40.76186 0,-22.51234 -18.25,-40.76211 -40.7623,-40.76185 z"
       style="opacity:1;fill:#0c55f2;fill-opacity:0.78431373;fill-rule:evenodd;stroke:none;stroke-width:0.44979167;stroke-linecap:square;stroke-linejoin:round;stroke-miterlimit:4;stroke-dasharray:none;stroke-opacity:1;paint-order:markers fill stroke" />
    <path
       id="path5000"
       d="m -1402.1361,-608.76362 -35.8944,62.1714 -6.6159,-11.45921 c -2.6263,-4.54893 -6.6133,-4.44048 -9.1729,-0.007 -2.4711,4.28035 -4.8233,8.35435 -6.9494,12.03661 -6.6371,-11.49745 -13.2755,-22.99424 -19.9135,-34.49131 h -16.7592 l 26.4015,45.37864 c 4.9396,7.90792 4.9791,7.9375 10.2712,7.87135 5.4653,0.0338 5.4678,0.0228 10.3255,-7.89099 l 1.2087,-2.05827 1.2098,2.06034 c 5.1456,7.8051 5.1853,7.82666 9.9017,7.86929 5.0692,-0.0196 5.0939,0.006 10.0355,-7.87448 l 42.7116,-73.60634 z"
       style="fill:#0c55f2;fill-opacity:0.78431373;fill-rule:evenodd;stroke-width:0.26458329" />
    <path
       style="opacity:1;fill:#0c55f2;fill-opacity:0.78431373;fill-rule:evenodd;stroke:none;stroke-width:0.44979167;stroke-linecap:square;stroke-linejoin:round;stroke-miterlimit:4;stroke-dasharray:none;stroke-opacity:1;paint-order:markers fill stroke"
       d="m -1498.9974,-608.77753 c -3.6729,0.0113 -4.998,0.008 -8.4084,0.004 -7.9725,-0.004 -7.9725,-0.004 -7.9725,7.94447 v 6.62007 c 7.6725,-0.003 8.4561,-0.0334 13.3015,0.003 14.4647,-3e-5 28.5719,11.72594 28.5719,26.19065 0,12.67336 -11.4632,23.52546 -23.9365,25.76845 v -38.26743 h -17.9049 v 35.04489 l -0.032,-0.0181 0.01,10.31382 c 0.01,7.93407 0.01,7.93407 7.9346,7.91663 3.4621,-0.006 4.7384,-0.002 8.4374,0.004 22.5123,2.6e-4 40.7623,-18.24952 40.7623,-40.76186 0,-22.51234 -18.25,-40.76211 -40.7623,-40.76185 z"
       id="path5002" />
    <path
       style="fill:#0c55f2;fill-opacity:0.78431373;fill-rule:evenodd;stroke-width:0.26458329"
       d="m -1272.219,-608.76362 -35.8944,62.1714 -6.6159,-11.45921 c -2.6263,-4.54893 -6.6133,-4.44048 -9.1729,-0.007 -2.4711,4.28035 -4.8233,8.35435 -6.9494,12.03661 -6.6371,-11.49745 -13.2755,-22.99424 -19.9135,-34.49131 h -16.7592 l 26.4015,45.37864 c 4.9396,7.90792 4.9791,7.9375 10.2712,7.87135 5.4653,0.0338 5.4678,0.0228 10.3255,-7.89099 l 1.2087,-2.05827 1.2098,2.06034 c 5.1456,7.8051 5.1853,7.82666 9.9017,7.86929 5.0692,-0.0196 5.0939,0.006 10.0355,-7.87448 l 42.7116,-73.60634 z"
       id="path5004" />
    <g
       style="fill:#0c55f2;fill-opacity:1"
       transform="matrix(2.2319426,0,0,2.2319426,230.53998,-1196.8329)"
       id="g5175">
      <g
         id="g5133"
         transform="matrix(0.4361562,0,0,0.4361562,-626.05573,260.3492)"
         style="fill:#0c55f2;fill-opacity:1">
        <path
           style="opacity:1;fill:#0c55f2;fill-opacity:1;fill-rule:evenodd;stroke:none;stroke-width:0.44979167;stroke-linecap:square;stroke-linejoin:round;stroke-miterlimit:4;stroke-dasharray:none;stroke-opacity:1;paint-order:markers fill stroke"
           d="m -930.53604,425.56123 16.47248,0.002 c -0.0306,-6e-5 -0.0606,-0.002 -0.0912,-0.002 -5.64313,0.0172 -5.7442,0 -16.38125,0 z m 0,0 c 0.0461,21.10255 0.032,42.20564 0.032,63.30825 l -0.032,-0.019 0.0154,18.24849 c 10.71749,-0.0264 10.72477,-0.0224 16.36584,-0.0142 9.72189,1.2e-4 18.64444,-3.40832 25.65005,-9.0887 z m 16.76749,0.01 35.10133,60.79992 c 3.35203,-5.92078 5.27479,-12.75751 5.27479,-20.04708 0,-22.38277 -18.04255,-40.5447 -40.37612,-40.75284 z"
           id="path5131" />
      </g>
      <path
         style="fill:#0c55f2;fill-opacity:1;fill-rule:evenodd;stroke-width:0.11539962"
         d="m -983.51934,445.9604 -15.65071,27.10841 c -0.0282,-0.0515 -0.0564,-0.10326 -0.0847,-0.15655 l -0.84595,-1.74823 c -0.6257,-1.36645 -1.28,-2.86986 -1.9585,-4.04625 -8e-4,-10e-4 -10e-4,-0.003 0,-0.004 -2e-4,-3.4e-4 -3e-4,-7.1e-4 -5e-4,-0.001 -0.071,-0.12298 -0.1444,-0.23802 -0.2202,-0.3457 -0.074,-0.10552 -0.1508,-0.20381 -0.2289,-0.29456 -0.055,-0.0644 -0.1121,-0.12044 -0.169,-0.17725 -0.024,-0.0234 -0.046,-0.0507 -0.07,-0.0729 -0.081,-0.0758 -0.1634,-0.14335 -0.247,-0.20413 -0.074,-0.0535 -0.1482,-0.0986 -0.2232,-0.14055 -0.012,-0.007 -0.024,-0.0157 -0.036,-0.0222 -0.074,-0.0395 -0.1491,-0.0704 -0.2243,-0.0987 -0.013,-0.005 -0.025,-0.0115 -0.038,-0.016 -0.067,-0.0233 -0.1335,-0.0386 -0.2005,-0.0532 -0.023,-0.005 -0.046,-0.0135 -0.069,-0.0176 -0.053,-0.009 -0.1064,-0.0117 -0.1597,-0.0155 -0.038,-0.003 -0.075,-0.009 -0.1131,-0.009 -0.038,6e-5 -0.076,0.006 -0.1137,0.009 -0.053,0.004 -0.1065,0.007 -0.1597,0.0155 -0.023,0.004 -0.046,0.0125 -0.069,0.0176 -0.067,0.0146 -0.134,0.0299 -0.2005,0.0532 -0.013,0.005 -0.025,0.0112 -0.038,0.016 -0.075,0.0283 -0.1501,0.0592 -0.2243,0.0987 -0.012,0.006 -0.024,0.0154 -0.036,0.0222 -0.075,0.0419 -0.1497,0.0871 -0.2232,0.14055 -0.083,0.0608 -0.166,0.12835 -0.247,0.20413 -0.024,0.0221 -0.046,0.0494 -0.07,0.0729 -0.057,0.0568 -0.1138,0.11287 -0.169,0.17725 -0.078,0.0908 -0.1548,0.18904 -0.2289,0.29456 -0.076,0.10768 -0.1492,0.22272 -0.2202,0.3457 -2e-4,3.7e-4 -3e-4,7.7e-4 -5e-4,0.001 -3e-4,6.1e-4 -7e-4,10e-4 0,0.002 l -5e-4,0.003 c -0.6786,1.17639 -1.3333,2.67981 -1.9591,4.04625 l -0.8444,1.74461 c -0.029,0.0545 -0.058,0.1071 -0.086,0.15967 l -0.339,-0.58703 c -1.1033,1.94884 -2.5617,3.66908 -4.2907,5.07101 l 0.2966,0.51106 c 1.9127,3.05047 2.1444,3.38437 3.7156,3.42668 0.1422,0.0118 0.2959,0.0188 0.4769,0.0165 2.3829,0.0147 2.3853,0.01 4.5016,-3.43805 6e-4,-9.5e-4 0,-0.002 0,-0.003 v -5e-4 c 0,0 5e-4,-5.3e-4 5e-4,-5.3e-4 l 0.5271,-1.42576 0.5276,1.42576 c 0,0 5e-4,5.3e-4 5e-4,5.3e-4 v 5e-4 c 6e-4,9.5e-4 0,0.002 0,0.003 2.1163,3.44782 2.1183,3.45274 4.50104,3.43805 0.14634,0.002 0.27935,-0.004 0.401,-0.016 1.63502,-0.0347 1.85132,-0.33197 3.79201,-3.42718 l 18.62884,-32.10398 z m -41.21096,0.001 c 0.043,1.1e-4 0.086,0.003 0.1292,0.003 v -0.003 z"
         id="path5158" />
    </g>
    <g
       style="fill:#0c55f2;fill-opacity:1"
       transform="matrix(0.4361562,0,0,0.4361562,-592.09642,249.4243)"
       id="g5156" />
    <g
       style="fill:#fdb903;fill-opacity:1"
       id="g5169"
       transform="matrix(0.97326222,0,0,0.97326222,-268.71191,490.2802)">
      <path
         d="m -964.50719,237.50752 c 0.0461,21.10256 0.032,42.20517 0.032,63.30775 l -0.032,-0.018 0.0161,18.24797 c 10.71747,-0.0265 10.72382,-0.0222 16.3649,-0.014 22.51234,2.6e-4 40.76234,-18.24951 40.76237,-40.76187 -3e-5,-22.51234 -18.25003,-40.76211 -40.76237,-40.76184 -5.64311,0.0172 -5.74387,0 -16.38091,0 z m 113.14467,0.0456 -35.84655,62.17076 -6.61598,-13.668 c -2.62636,-4.54893 -6.61313,-4.44072 -9.17276,-0.007 -2.47116,4.2803 -4.82283,10.56389 -6.94891,14.24617 -6.63705,-11.49741 -13.76088,-23.97382 -20.39888,-35.47094 h -16.75913 l 26.88693,46.35823 c 4.93951,7.90789 4.97896,7.93692 10.27108,7.87072 5.46549,0.0337 5.46801,0.0233 10.32568,-7.89088 l 1.20851,-3.26769 1.20965,3.27009 c 5.14553,7.80505 5.18498,7.82691 9.90139,7.86956 5.06929,-0.0183 5.09384,0.007 10.03541,-7.87554 l 25.90356,-44.45542 z"
         style="opacity:1;fill:#fdb903;fill-opacity:1;fill-rule:evenodd;stroke:none;stroke-width:0.44979167;stroke-linecap:square;stroke-linejoin:round;stroke-miterlimit:4;stroke-dasharray:none;stroke-opacity:1;paint-order:markers fill stroke"
         id="path5167" />
    </g>
    <g
       style="fill:#0c55f2;fill-opacity:1"
       transform="matrix(0.9734756,0,0,0.9734756,-444.57131,-379.8362)"
       id="g5215">
      <path
         d="m -817.09724,470.75549 c 0.0103,4.81988 0.009,9.63958 0.0143,14.45946 h 0.0201 v 12.83867 h -0.007 c 0.006,12.00311 0.007,24.00574 0.007,36.00885 l -0.0332,-0.0178 0.0166,18.24856 c 10.71749,-0.0267 10.72356,-0.0227 16.36469,-0.0142 22.51228,2.4e-4 40.7623,-18.24996 40.76236,-40.76236 -6e-5,-22.51229 -18.25008,-40.76145 -40.76236,-40.76115 -5.64314,0.017 -5.74426,0 -16.38125,0 z m -18.87297,14.15519 26.30273,45.32982 c 4.38536,6.99396 4.91659,7.75951 8.51897,7.85652 0.32626,0.0273 0.67843,0.0431 1.09364,0.0376 5.46318,0.0335 5.46892,0.0231 10.32085,-7.88259 v -0.007 0 0 l 1.20851,-3.26892 1.20989,3.26892 v 0 0 0.007 c 4.85193,7.90499 4.85651,7.91627 10.3197,7.88259 0.33543,0.007 0.64059,-0.009 0.91939,-0.0369 3.74866,-0.0796 4.24481,-0.76114 8.69413,-7.85769 l 26.30297,-45.32981 h -16.67752 l -19.55767,33.87626 c -0.0642,-0.11808 -0.12839,-0.23684 -0.19488,-0.359 l -1.93967,-4.00829 c -1.43458,-3.13292 -2.93473,-6.57987 -4.49037,-9.27707 v -0.009 c -4.6e-4,0 0,0 0,0 -0.16278,-0.28196 -0.33107,-0.54572 -0.50463,-0.7926 -0.16967,-0.24194 -0.34575,-0.46729 -0.52482,-0.67536 -0.1261,-0.14765 -0.25724,-0.27614 -0.38747,-0.40639 -0.055,-0.0541 -0.10547,-0.11624 -0.16049,-0.16714 -0.18572,-0.17379 -0.37487,-0.32869 -0.56632,-0.46802 -0.16737,-0.12266 -0.33978,-0.22607 -0.51174,-0.32225 -0.0275,-0.0161 -0.055,-0.0365 -0.0825,-0.0509 -0.16966,-0.0906 -0.34185,-0.16141 -0.51426,-0.22629 -0.0298,-0.0115 -0.0573,-0.0273 -0.0871,-0.0376 -0.15132,-0.0534 -0.30608,-0.0885 -0.4597,-0.12198 -0.0527,-0.0115 -0.10546,-0.0309 -0.1582,-0.0401 -0.12151,-0.0206 -0.24395,-0.0254 -0.36592,-0.0346 -0.0871,-0.007 -0.17425,-0.0206 -0.26069,-0.0206 -0.0871,1.2e-4 -0.17425,0.0138 -0.26068,0.0206 -0.12152,0.009 -0.24418,0.0137 -0.36616,0.0346 -0.0527,0.009 -0.10546,0.0284 -0.1582,0.0401 -0.15361,0.0333 -0.30723,0.0686 -0.45969,0.12198 -0.0298,0.0115 -0.0573,0.0266 -0.0871,0.0376 -0.17196,0.0649 -0.34414,0.13573 -0.51426,0.22629 -0.0275,0.0138 -0.055,0.0351 -0.0825,0.0509 -0.17196,0.0961 -0.34323,0.1997 -0.51198,0.32225 -0.19029,0.1394 -0.38036,0.29427 -0.56631,0.46802 -0.055,0.0504 -0.10546,0.11326 -0.16049,0.16714 -0.13069,0.13023 -0.26092,0.25878 -0.38748,0.40639 -0.17883,0.20818 -0.35491,0.43342 -0.52481,0.67536 -0.17425,0.24688 -0.34208,0.51064 -0.50486,0.7926 -4.6e-4,0 0,0 0,0 v 0.007 0.007 c -1.55587,2.69717 -3.05579,6.14415 -4.4906,9.27706 l -1.93577,3.99997 c -0.0665,0.12496 -0.13298,0.24555 -0.19947,0.36609 L -819.2927,484.9124 Z"
         style="opacity:1;fill:#0c55f2;fill-opacity:1;fill-rule:evenodd;stroke:none;stroke-width:0.44979167;stroke-linecap:square;stroke-linejoin:round;stroke-miterlimit:4;stroke-dasharray:none;stroke-opacity:1;paint-order:markers fill stroke"
         id="path5213" />
    </g>
    <path
       id="path5488"
       d="m -1053.7564,-358.27274 v 19.10848 h 9.4246 c 4.6778,-0.22648 8.7195,-3.94021 8.7879,-9.6372 -0.1698,-5.42041 -3.7199,-9.3378 -8.7879,-9.44103 z"
       style="fill:none;stroke:#000000;stroke-width:0.26458332px;stroke-linecap:butt;stroke-linejoin:miter;stroke-opacity:1" />
    <path
       style="fill:none;stroke:#000000;stroke-width:0.2050864px;stroke-linecap:butt;stroke-linejoin:miter;stroke-opacity:1"
       d="m -1051.7087,-356.12432 v 14.81154 h 7.3053 c 3.6259,-0.17554 6.7588,-3.05417 6.8117,-7.47007 -0.1315,-4.20153 -2.8833,-7.23801 -6.8117,-7.31803 z"
       id="path5496" />
    <path
       style="fill:none;stroke:#000000;stroke-width:0.13080581px;stroke-linecap:butt;stroke-linejoin:miter;stroke-opacity:1"
       d="m -1049.1173,-353.40556 v 9.44693 h 4.6593 c 2.3127,-0.11197 4.3108,-1.94798 4.3446,-4.76448 -0.084,-2.67976 -1.839,-4.61646 -4.3446,-4.6675 z"
       id="path5498" />
    <path
       id="path5500"
       d="m -1046.9546,-351.13647 v 4.90867 h 2.421 c 1.2017,-0.0581 2.24,-1.01219 2.2575,-2.47565 -0.044,-1.39242 -0.9556,-2.39874 -2.2575,-2.42526 z"
       style="fill:none;stroke:#000000;stroke-width:0.06796739px;stroke-linecap:butt;stroke-linejoin:miter;stroke-opacity:1" />
    <path
       id="path5513"
       d="m -990.07083,-335.59923 h 8.8635 l 2.4907,9.29518 1.3242,-2.29361 h 1.9068 l -4.035,6.98875 -3.2874,-12.26873 h -7.7754 z"
       style="fill:none;stroke:#000000;stroke-width:0.26458332px;stroke-linecap:butt;stroke-linejoin:miter;stroke-opacity:1" />
    <path
       id="path5515"
       d="m -988.45023,-331.7297 h 4.1672 l 3.3224,12.39949 h 2.9118 l 5.3845,-9.32622 h 1.5443 l 0.7682,2.86689 5.6361,-9.76201 h 5.8657 l -10.3487,17.92446 h -4.8813 l -0.9967,-3.71946 -2.1352,3.69827 h -5.3183 l -3.3175,-12.38126 h -3.1317 z"
       style="fill:none;stroke:#000000;stroke-width:0.26458332px;stroke-linecap:butt;stroke-linejoin:miter;stroke-opacity:1" />
    <path
       id="path5517"
       d="m -972.27763,-326.37188 -1.5833,2.74235 1.1452,4.27368 h 3.2163 l 8.3484,-14.45993 h -2.9741 l -6.9592,12.05376 z"
       style="fill:none;stroke:#000000;stroke-width:0.26458332px;stroke-linecap:butt;stroke-linejoin:miter;stroke-opacity:1" />
    <path
       id="path5519"
       d="m -1007.9002,-387.45762 -0.5126,1.8986 h 7.7752 l 3.28767,12.09178 2.7497,-4.76303 h 4.4932 l 1.1932,4.61007 6.9593,-11.93882 h 0.04 2.9337 1.2071 l 1.094,-1.89807 h -5.8658 l -5.6358,9.80975 -0.7684,-2.80811 h -1.3875 -2.9781 -1.4708 -0.4361 l -1.324,2.29339 -2.4908,-9.29503 z m -9.7048,4.47313 3.1605,2.14974 11.0484,-0.003 3.0365,11.3311 h 5.31857 l 2.1347,-3.69798 0.9969,3.69798 h 4.8813 l 6.5329,-11.3316 h 2.7218 l 1.094,-1.8981 h -3.9832 l -1.1296,1.8981 -5.5366,9.29762 h -3.2164 l -1.1451,-3.94756 -0.1385,-0.51679 h -1.2583 l -2.7911,4.46435 h -2.912 l -3.01107,-11.36674 -0.02,-0.0775 z"
       style="fill:#0000ff;fill-opacity:1;stroke:none;stroke-width:0.26458332px;stroke-linecap:butt;stroke-linejoin:miter;stroke-opacity:1" />
    <path
       id="path5550"
       d="m -1029.7875,-359.27943 h 8.8635 l 2.4906,9.29518 1.3243,-2.29361 h 1.9067 l -4.0349,6.98875 -3.2874,-12.26873 h -7.7755 z"
       style="fill:none;stroke:#000000;stroke-width:0.26458332px;stroke-linecap:butt;stroke-linejoin:miter;stroke-opacity:1" />
    <path
       id="path5552"
       d="m -1028.167,-355.4099 h 4.1672 l 3.3225,12.37378 h 2.9118 l 5.3845,-9.2418 h 1.5442 l 0.7682,2.80818 5.6361,-9.80968 h 5.86577 l -10.34867,17.9509 h -4.8814 l -0.9966,-3.69823 -2.1352,3.69827 h -5.3183 l -3.3176,-12.38126 h -3.1316 z"
       style="fill:none;stroke:#000000;stroke-width:0.26458332px;stroke-linecap:butt;stroke-linejoin:miter;stroke-opacity:1" />
    <path
       id="path5554"
       d="m -1011.9943,-350.05208 -1.5833,2.74235 1.1451,4.27368 h 3.2163 l 8.3485,-14.52187 h -2.9741 l -6.9593,12.1157 z"
       style="fill:none;stroke:#000000;stroke-width:0.26458332px;stroke-linecap:butt;stroke-linejoin:miter;stroke-opacity:1" />
    <path
       id="path5567"
       d="m -1022.244,-387.45762 v 17.95084 h 9.4247 c 4.5807,-0.2083 8.5486,-3.55917 8.7757,-8.72349 h -2.0469 c -0.2023,3.97102 -3.2666,6.54428 -6.8006,6.70501 h -7.3055 v -14.05339 l 6.4068,0.0196 h 1.3395 5.1036 c -0.5842,-0.46125 1.9083,-1.89873 -0.507,-1.87328 -4.8794,-0.0254 -9.5926,-0.0106 -14.3903,-0.0254 z"
       style="fill:#0000ff;fill-opacity:1;stroke:none;stroke-width:0.2564429px;stroke-linecap:butt;stroke-linejoin:miter;stroke-opacity:1" />
    <path
       id="path5571"
       d="m -1017.605,-382.98552 v 8.94103 h 4.6591 c 2.217,-0.10157 4.1404,-1.70502 4.3258,-4.18578 h -2.1662 c -0.1546,1.21089 -1.1243,1.98728 -2.235,2.03813 h -2.4211 v -4.64571 l 0.9979,0.003 v -1.87638 h 2.9657 c -0.4512,-0.15737 -0.9412,-0.25032 -1.4671,-0.26045 z"
       style="fill:#0000ff;fill-opacity:1;stroke:none;stroke-width:0.12725689px;stroke-linecap:butt;stroke-linejoin:miter;stroke-opacity:1" />
    <path
       style="fill:#0000ff;fill-opacity:1;stroke:none;stroke-width:0.26458332px;stroke-linecap:butt;stroke-linejoin:miter;stroke-opacity:1"
       d="m -953.59633,-387.45761 -0.5126,1.89859 h 7.7752 l 3.2877,12.09178 2.74967,-4.76303 h 4.49327 l 1.19321,4.61007 6.95926,-11.93882 h 2.97398 l -8.34833,14.01879 h -3.21634 l -1.14515,-3.94755 -0.13849,-0.51679 h -1.25832 l -2.79106,4.46434 h -2.912 l -3.3222,-12.04785 h -4.1672 l -0.5292,1.70016 h 3.1316 l 3.3176,12.38115 h 5.3186 l 2.13473,-3.69795 0.99684,3.69795 h 4.88135 l 10.34872,-17.95084 h -5.86579 l -5.63583,9.80974 -0.76843,-2.8081 h -1.38751 -2.97811 -1.47071 -0.43616 l -1.3239,2.29341 -2.4909,-9.29505 z"
       id="path5576" />
    <g
       style="fill:#fdb903;fill-opacity:1"
       transform="matrix(4.4859814,0,0,4.4859814,-1742.1206,5147.7202)"
       id="g5724">
      <path
         style="fill:#fdb903;fill-opacity:1;stroke:none;stroke-width:0.26458332px;stroke-linecap:butt;stroke-linejoin:miter;stroke-opacity:1"
         d="m 44.251562,-986.69222 v 17.69401 l 7.339087,-4.23693 v -9.25836 l -1.469677,-0.84079 c 0.01281,3.48657 0.031,9.43044 -0.01034,9.43044 -0.05472,0 -1.541508,0.8904 -1.541508,0.8904 v -11.20862 l -1.331185,-0.76171 c 0.009,2.48377 0.04399,12.56821 -0.0046,12.56821 -0.05473,0 -1.541508,0.89037 -1.541508,0.8904 v -14.34333 z"
         id="path5702" />
      <path
         style="fill:#fdb903;fill-opacity:1;stroke:none;stroke-width:0.26458332px;stroke-linecap:butt;stroke-linejoin:miter;stroke-opacity:1"
         d="m 42.750879,-986.69222 -7.339087,4.19872 v 1.77559 l 1.521354,-0.89243 v 7.5525 l -1.521354,-0.88368 v 1.70638 l 7.339087,4.23693 z m -1.434538,2.51147 v 12.669 l -2.872693,-1.66863 v -9.31571 z"
         id="path5704" />
    </g>
    <g
       transform="translate(-3.175,141.0479)"
       id="g6180">
      <rect
         style="fill:#0000ff;fill-opacity:0.54804269;fill-rule:evenodd;stroke-width:0.25939542"
         id="rect5240"
         width="4.6691175"
         height="13.229167"
         x="-1127.6177"
         y="-467.86057" />
      <rect
         y="-742.6153"
         x="946.0744"
         height="13.229167"
         width="4.6691175"
         id="rect5248"
         style="fill:#0000ff;fill-opacity:0.54804269;fill-rule:evenodd;stroke-width:0.25939542"
         transform="rotate(-120)" />
      <rect
         y="-488.23349"
         x="-1109.3733"
         height="33.602085"
         width="4.6691175"
         id="rect5250"
         style="fill:#0000ff;fill-opacity:0.54804269;fill-rule:evenodd;stroke-width:0.41340828" />
      <rect
         y="729.38611"
         x="-968.98798"
         height="13.229167"
         width="4.6691175"
         id="rect5254"
         style="fill:#0000ff;fill-opacity:0.54804269;fill-rule:evenodd;stroke-width:0.25939542"
         transform="rotate(60)" />
      <rect
         transform="matrix(-0.5,0.8660254,0.8660254,0.5,0,0)"
         style="fill:#0000ff;fill-opacity:0.54804269;fill-rule:evenodd;stroke-width:0.25939542"
         id="rect5256"
         width="4.6691175"
         height="13.229167"
         x="147.17297"
         y="-1203.8613" />
      <rect
         y="-467.86057"
         x="-1102.7397"
         height="13.229167"
         width="4.6691175"
         id="rect5258"
         style="fill:#0000ff;fill-opacity:0.54804269;fill-rule:evenodd;stroke-width:0.25939542" />
      <rect
         y="1169.0872"
         x="-157.64752"
         height="13.229167"
         width="4.6691175"
         id="rect5260"
         style="fill:#0000ff;fill-opacity:0.54804269;fill-rule:evenodd;stroke-width:0.25939542"
         transform="matrix(0.5,-0.8660254,-0.8660254,-0.5,0,0)" />
      <rect
         style="fill:#0000ff;fill-opacity:0.54804269;fill-rule:evenodd;stroke-width:0.25939542"
         id="rect5262"
         width="4.6691175"
         height="13.229167"
         x="-1093.5724"
         y="-467.95981" />
      <rect
         transform="matrix(0.5,-0.8660254,-0.8660254,-0.5,0,0)"
         style="fill:#0000ff;fill-opacity:0.54804269;fill-rule:evenodd;stroke-width:0.25939542"
         id="rect5264"
         width="4.6691175"
         height="13.229167"
         x="-152.97791"
         y="1161.1976" />
      <rect
         y="-468.00803"
         x="-1084.4501"
         height="15.848409"
         width="4.6691175"
         id="rect5266"
         style="fill:#0000ff;fill-opacity:0.54804269;fill-rule:evenodd;stroke-width:0.28391534" />
      <rect
         transform="matrix(0.5,-0.8660254,-0.8660254,-0.5,0,0)"
         style="fill:#0000ff;fill-opacity:0.54804269;fill-rule:evenodd;stroke-width:0.25939542"
         id="rect5246"
         width="4.6691175"
         height="13.229167"
         x="-170.08655"
         y="1190.6321" />
    </g>
    <g
       style="stroke:none;stroke-opacity:1"
       transform="matrix(2.4000036,0,0,2.4000036,-2427.3911,1036.1818)"
       id="g5787">
      <rect
         style="fill:#0000ff;fill-opacity:0.99288252;fill-rule:evenodd;stroke:none;stroke-width:0.43662751;stroke-opacity:1"
         id="rect5726"
         width="6.6145835"
         height="26.458334"
         x="12.187483"
         y="-597.15906" />
      <rect
         y="-301.63345"
         x="-491.45493"
         height="13.229167"
         width="6.6145835"
         id="rect5728"
         style="fill:#0000ff;fill-opacity:0.99288252;fill-rule:evenodd;stroke:none;stroke-width:0.30874231;stroke-opacity:1"
         transform="rotate(60)" />
      <rect
         transform="rotate(120)"
         style="fill:#0000ff;fill-opacity:0.99288252;fill-rule:evenodd;stroke:none;stroke-width:0.30874231;stroke-opacity:1"
         id="rect5730"
         width="6.6145835"
         height="13.229167"
         x="-515.09918"
         y="275.68188" />
      <rect
         y="-301.63345"
         x="-507.75391"
         height="13.229167"
         width="6.6145835"
         id="rect5732"
         style="fill:#0000ff;fill-opacity:0.99288252;fill-rule:evenodd;stroke:none;stroke-width:0.30874231;stroke-opacity:1"
         transform="rotate(60)" />
      <rect
         transform="rotate(120)"
         style="fill:#0000ff;fill-opacity:0.99288252;fill-rule:evenodd;stroke:none;stroke-width:0.30874231;stroke-opacity:1"
         id="rect5734"
         width="6.6145835"
         height="13.229167"
         x="-498.8002"
         y="275.68188" />
      <rect
         y="-583.92993"
         x="-4.1114998"
         height="13.229167"
         width="6.6145835"
         id="rect5736"
         style="fill:#0000ff;fill-opacity:0.99288252;fill-rule:evenodd;stroke:none;stroke-width:0.30874231;stroke-opacity:1" />
      <rect
         y="253.34114"
         x="-511.69864"
         height="13.229167"
         width="6.6145835"
         id="rect5738"
         style="fill:#0000ff;fill-opacity:0.99288252;fill-rule:evenodd;stroke:none;stroke-width:0.30874231;stroke-opacity:1"
         transform="rotate(120)" />
      <rect
         style="fill:#0000ff;fill-opacity:0.99288252;fill-rule:evenodd;stroke:none;stroke-width:0.30874231;stroke-opacity:1"
         id="rect5740"
         width="6.6145835"
         height="13.229167"
         x="21.685375"
         y="-583.92993" />
      <rect
         transform="rotate(120)"
         style="fill:#0000ff;fill-opacity:0.99288252;fill-rule:evenodd;stroke:none;stroke-width:0.30874231;stroke-opacity:1"
         id="rect5742"
         width="6.6145835"
         height="13.229167"
         x="-515.75775"
         y="246.31061" />
      <rect
         y="-583.92993"
         x="29.803541"
         height="14.100299"
         width="6.6145835"
         id="rect5744"
         style="fill:#0000ff;fill-opacity:0.99288252;fill-rule:evenodd;stroke:none;stroke-width:0.31874549;stroke-opacity:1" />
      <rect
         style="fill:#0000ff;fill-opacity:0.99288252;fill-rule:evenodd;stroke:none;stroke-width:0.31871197;stroke-opacity:1"
         id="rect5748"
         width="6.6145835"
         height="14.097331"
         x="37.94775"
         y="-583.92993" />
    </g>
    <g
       style="stroke:#0000ff;stroke-opacity:0.99607843"
       transform="matrix(5.4809271,0,0,5.4809271,-1586.9286,4974.8365)"
       id="g5833">
      <path
         style="fill:none;stroke:#0000ff;stroke-width:1.05833328;stroke-linecap:round;stroke-linejoin:miter;stroke-miterlimit:4;stroke-dasharray:none;stroke-opacity:0.99607843"
         d="m -111.69193,-979.03826 h 9.54152 c 8.208513,0.02 8.208513,13.37349 0,13.37683 h -9.40121"
         id="path5789" />
      <path
         id="path5793"
         d="m -111.80026,-978.99149 h 9.54152 c 8.208512,0.02 8.208512,13.37349 0,13.37683 h -9.40121"
         style="fill:none;stroke:#0000ff;stroke-width:1.05833328;stroke-linecap:round;stroke-linejoin:miter;stroke-miterlimit:4;stroke-dasharray:none;stroke-opacity:0.99607843" />
      <path
         style="fill:none;stroke:#0000ff;stroke-width:1.05215108;stroke-linecap:round;stroke-linejoin:miter;stroke-miterlimit:4;stroke-dasharray:none;stroke-opacity:0.99607843"
         d="m -111.8034,-975.7721 h 8.17176 c 5.313415,0.008 5.313415,6.88991 0,6.93804 h -8.06087"
         id="path5795" />
      <path
         style="fill:none;stroke:#0000ff;stroke-width:1.05833328;stroke-linecap:round;stroke-linejoin:miter;stroke-miterlimit:4;stroke-dasharray:none;stroke-opacity:0.99607843"
         d="m -111.80026,-972.30308 h 6.51611"
         id="path5803" />
      <path
         style="fill:none;stroke:#0000ff;stroke-width:1.05833328;stroke-linecap:round;stroke-linejoin:miter;stroke-miterlimit:4;stroke-dasharray:none;stroke-opacity:0.99607843"
         d="m -81.387958,-978.98401 v 7.16027 c -0.02,8.20852 -13.37349,8.20852 -13.37683,0 v -7.01995"
         id="path5809" />
      <path
         id="path5811"
         d="m -84.607353,-978.98714 v 5.79051 c -0.008,5.31341 -6.88991,5.31341 -6.93804,0 v -5.67962"
         style="fill:none;stroke:#0000ff;stroke-width:1.05215108;stroke-linecap:round;stroke-linejoin:miter;stroke-miterlimit:4;stroke-dasharray:none;stroke-opacity:0.99607843" />
      <path
         id="path5813"
         d="m -88.076373,-978.98401 v 6.51612"
         style="fill:none;stroke:#0000ff;stroke-width:1.05833328;stroke-linecap:round;stroke-linejoin:miter;stroke-miterlimit:4;stroke-dasharray:none;stroke-opacity:0.99607843" />
      <path
         id="path5817"
         d="m -74.699543,-978.98401 v 7.16027 c -0.02,8.20852 -13.37349,8.20852 -13.37683,0 v -7.01995"
         style="fill:none;stroke:#0000ff;stroke-width:1.05833328;stroke-linecap:round;stroke-linejoin:miter;stroke-miterlimit:4;stroke-dasharray:none;stroke-opacity:0.99607843" />
      <path
         style="fill:none;stroke:#0000ff;stroke-width:1.05215108;stroke-linecap:round;stroke-linejoin:miter;stroke-miterlimit:4;stroke-dasharray:none;stroke-opacity:0.99607843"
         d="m -77.918938,-978.98714 v 5.79051 c -0.008,5.31341 -6.88991,5.31341 -6.93804,0 v -5.67962"
         id="path5819" />
      <path
         style="fill:none;stroke:#0000ff;stroke-width:1.05833328;stroke-linecap:round;stroke-linejoin:miter;stroke-miterlimit:4;stroke-dasharray:none;stroke-opacity:0.99607843"
         d="m -81.387958,-978.98401 v 6.51612"
         id="path5821" />
    </g>
    <g
       style="fill:#fdb903;fill-opacity:1"
       transform="translate(1101.2257,1264.5796)"
       id="g5909">
      <rect
         style="fill:#fdb903;fill-opacity:1;fill-rule:evenodd;stroke:none;stroke-width:0.62301779;stroke-opacity:1"
         id="rect5853"
         width="11.753112"
         height="30.317303"
         x="-1348.4785"
         y="-2034.6619"
         transform="rotate(-45)" />
      <path
         style="fill:#fdb903;fill-opacity:1;fill-rule:evenodd;stroke:none;stroke-width:0.93912572;stroke-opacity:1"
         d="m -2394.3953,-543.14233 0.01,0.009 v -0.009 z m -12.3672,4.2539 v 61.16514 h 12.3761 v -48.78901 z"
         id="rect5835" />
      <rect
         transform="rotate(60)"
         style="fill:#fdb903;fill-opacity:1;fill-rule:evenodd;stroke:none;stroke-width:0.57766914;stroke-opacity:1"
         id="rect5837"
         width="12.376148"
         height="24.752296"
         x="-1623.2899"
         y="1834.7379" />
      <rect
         y="2324.8374"
         x="762.03668"
         height="24.752296"
         width="12.376148"
         id="rect5839"
         style="fill:#fdb903;fill-opacity:1;fill-rule:evenodd;stroke:none;stroke-width:0.57766914;stroke-opacity:1"
         transform="rotate(120)" />
      <rect
         transform="rotate(60)"
         style="fill:#fdb903;fill-opacity:1;fill-rule:evenodd;stroke:none;stroke-width:0.57766914;stroke-opacity:1"
         id="rect5841"
         width="12.376148"
         height="24.752296"
         x="-1653.7859"
         y="1834.7379" />
      <rect
         y="2324.8374"
         x="792.53271"
         height="24.752296"
         width="12.376148"
         id="rect5843"
         style="fill:#fdb903;fill-opacity:1;fill-rule:evenodd;stroke:none;stroke-width:0.57766914;stroke-opacity:1"
         transform="rotate(120)" />
      <rect
         style="fill:#fdb903;fill-opacity:1;fill-rule:evenodd;stroke:none;stroke-width:0.57766914;stroke-opacity:1"
         id="rect5845"
         width="12.376148"
         height="24.752296"
         x="-2437.2588"
         y="-502.47556" />
      <rect
         transform="rotate(-45)"
         y="-2020.8711"
         x="-1334.6877"
         height="30.317303"
         width="11.753112"
         id="rect5870"
         style="fill:#fdb903;fill-opacity:1;fill-rule:evenodd;stroke:none;stroke-width:0.62301779;stroke-opacity:1" />
      <path
         style="fill:#fdb903;fill-opacity:1;fill-rule:evenodd;stroke:none;stroke-width:0.62301779;stroke-opacity:1"
         d="m -2344.7687,-493.51574 -8.3107,8.31077 11.6936,11.69328 8.3825,-8.23867 z"
         id="rect5872" />
    </g>
    <g
       style="fill:#fdb903;fill-opacity:1"
       transform="matrix(0.91050862,0,0,0.91050862,1205.9096,1301.6165)"
       id="g6054">
      <path
         style="fill:#fdb903;fill-opacity:1;stroke:none;stroke-width:1.21009886px;stroke-linecap:butt;stroke-linejoin:miter;stroke-opacity:1"
         d="m -2882.3047,-637.20346 c -12.9347,0.46929 -24.9943,6.65391 -32.9231,16.88422 -0.036,0.0507 -0.071,0.10156 -0.1064,0.15246 v 13.55058 c 1.5838,-4.24535 3.9332,-8.16408 6.9313,-11.56155 l -10e-5,49.08534 c 1.5187,2.63043 4.2943,4.66714 6.7754,6.03739 l -0.015,-0.0114 c -2.4915,-1.72459 -4.7619,-3.74838 -6.7604,-6.02599 -2.9971,-3.39439 -5.3463,-7.30953 -6.9313,-11.55124 v 13.51545 c 0.035,0.0486 0.071,0.0972 0.1064,0.14573 0.3645,0.50127 0.7395,0.99473 1.125,1.48003 0.5486,0.62357 1.1148,1.23135 1.6981,1.82261 l 0.023,0.0243 c 0.4084,0.45731 0.8263,0.90597 1.2536,1.34567 0.5967,0.55463 1.2088,1.09245 1.8356,1.61282 0.032,0.0276 0.063,0.0552 0.095,0.0827 0.4412,0.404 0.8907,0.79889 1.3482,1.18441 0.639,0.48417 1.2912,0.95065 1.9559,1.3989 0.055,0.0394 0.1098,0.0787 0.1649,0.11782 0.4694,0.35009 0.9457,0.69071 1.4288,1.02164 0.6684,0.40766 1.3477,0.79727 2.0371,1.1684 0.089,0.0516 0.1783,0.10298 0.2677,0.15399 0.4879,0.29263 0.9815,0.5757 1.4805,0.84904 0.6853,0.32846 1.379,0.63898 2.0805,0.93123 0.1329,0.0603 0.266,0.11985 0.3995,0.17878 0.4968,0.23371 0.998,0.45803 1.5033,0.67284 0.6893,0.24845 1.3847,0.47952 2.0856,0.69297 0.1856,0.0629 0.3717,0.1246 0.5581,0.18502 0.4962,0.17489 0.9954,0.34079 1.4976,0.49763 0.6831,0.17077 1.3703,0.32499 2.0609,0.46252 0.2407,0.0563 0.4818,0.11056 0.7234,0.16277 0.4892,0.11873 0.9803,0.22899 1.4733,0.33073 0.6667,0.0966 1.3356,0.17775 2.0061,0.24339 0.3351,0.0445 0.6707,0.0852 1.0067,0.12197 0.4389,0.0601 0.8787,0.11348 1.3193,0.16018 0.4983,0.0263 0.9971,0.044 1.496,0.0532 v -6.63784 -73.94741 z m -2.4045,6.79492 c -0.2164,0.0243 -0.4326,0.0505 -0.6486,0.0786 0.216,-0.0281 0.4322,-0.0543 0.6486,-0.0786 z m -4.0308,0.66768 v 72.24672 c -4.6108,-1.01525 -8.9849,-2.90258 -12.887,-5.56037 v -61.09756 c 3.8999,-2.66782 8.2742,-4.56485 12.887,-5.58879 z"
         id="path6040" />
      <path
         style="fill:#fdb903;fill-opacity:1;stroke:none;stroke-width:1.27986121px;stroke-linecap:butt;stroke-linejoin:miter;stroke-opacity:1"
         d="m -2875.5728,-636.92441 v 6.65901 73.28133 6.6771 c 1.1845,-0.12965 2.3632,-0.30774 3.5331,-0.53382 0.9842,-0.21523 1.9606,-0.46446 2.9275,-0.74724 0.4344,-0.10376 0.8672,-0.21419 1.2982,-0.33123 1.3904,-0.43022 2.7584,-0.92969 4.0989,-1.49656 0.5355,-0.24538 1.066,-0.50158 1.5911,-0.76843 v -0.003 c 0.7894,-0.35282 1.5682,-0.72901 2.3353,-1.12808 0.3823,-0.2264 0.7611,-0.45862 1.1363,-0.69659 0.8303,-0.47234 1.6448,-0.97181 2.4423,-1.49759 0.047,-0.0288 0.094,-0.0578 0.1416,-0.0868 1.2013,-0.82176 2.3608,-1.70309 3.4741,-2.64068 1.1131,-0.93766 2.1786,-1.9304 3.1926,-2.9745 1.0142,-1.04408 1.9756,-2.13822 2.8805,-3.27834 0.9047,-1.14016 1.7519,-2.32486 2.5383,-3.54965 0.4658,-0.75766 0.9084,-1.52938 1.3271,-2.31408 v -42.60979 c -0.6278,-1.13429 -1.3057,-2.24006 -2.0319,-3.31401 -0.8218,-1.20119 -1.7031,-2.36053 -2.6407,-3.47369 -0.6133,-0.70213 -1.2489,-1.38444 -1.9058,-2.04587 l -0.01,-0.008 c 0.01,2.80403 0.01,7.22344 0.016,10.72801 l 0.01,0.0169 c 0.026,14.03805 0.047,28.49039 0.016,38.80072 -1.9126,3.11201 -4.2749,5.92402 -7.0104,8.34472 v -55.44261 -8.34729 c -0.3041,-0.22342 -0.6111,-0.4429 -0.9209,-0.65836 -1.2248,-0.78646 -2.4881,-1.51118 -3.7853,-2.17144 -0.4139,-0.19309 -0.8308,-0.37967 -1.2505,-0.55967 v 0 l -0.01,-0.003 c 0,1.45344 0.01,5.46016 0.012,7.45173 l 0.01,0.005 c 0.048,20.95185 0.098,53.98921 -0.01,64.01263 -2.2055,1.27971 -4.5373,2.32827 -6.9582,3.12899 v -70.27839 -6.93343 c -1.3773,-0.38122 -2.7725,-0.69458 -4.1806,-0.93895 -0.7576,-0.11214 -1.518,-0.20433 -2.2805,-0.27647 z"
         id="path5948" />
    </g>
    <g
       style="fill:#fdb903;fill-opacity:1"
       transform="matrix(5.9999375,0,0,5.9999375,-914.88301,6791.6732)"
       id="g6097">
      <path
         id="path6073"
         d="m -136.29984,-1010.0826 c 2.6751,0.1378 5.12333,1.4285 5.15098,5.151 -0.0506,2.7252 -2.07875,4.5755 -4.0164,4.629 v -6.505 c -0.0105,-1.2574 -1.70015,-1.2574 -1.72455,0 v 7.66231 c 0.0302,0.4055 0.39063,0.65388 0.83958,0.65807 2.91742,-0.0358 6.67033,-1.83358 6.70535,-6.70538 -0.0574,-4.3973 -3.36044,-6.4993 -6.97764,-6.5238 -0.77681,0.023 -0.78892,1.6111 0.0227,1.6338 z"
         style="fill:#fdb903;fill-opacity:1;stroke:none;stroke-width:0.25672555px;stroke-linecap:butt;stroke-linejoin:miter;stroke-opacity:1" />
      <path
         style="fill:#fdb903;fill-opacity:1;stroke:none;stroke-width:0.1724567px;stroke-linecap:butt;stroke-linejoin:miter;stroke-opacity:1"
         d="m -129.34482,-1003.0803 c -0.004,-0.8868 1.73756,-0.9373 1.75295,0 v 1.331 c 0.0303,1.4633 1.64627,1.4634 1.64627,1.4634 0,0 1.6085,-10e-5 1.5548,-1.4634 v -5.3431 c 0.0232,-0.8812 1.73651,-0.8774 1.76822,0 l 0.0457,5.3431 c 0.0771,1.4633 1.63102,1.4634 1.63102,1.4634 0,0 1.63206,-10e-5 1.58528,-1.4634 v -9.2984 c -9.3e-4,-0.8713 1.71985,-0.912 1.72248,0 v 9.2984 c 0,0 0.0679,3.26205 -3.30776,3.26208 -1.08993,-3e-5 -2.15107,-0.71277 -2.56086,-1.11275 -0.50073,0.41157 -1.3986,1.11272 -2.43891,1.11275 -3.43747,-3e-5 -3.39922,-3.26208 -3.39922,-3.26208 z"
         id="path6089" />
    </g>
    <g
       transform="matrix(0.97326222,0,0,0.97326222,-371.06131,-316.215)"
       id="g6101"
       style="fill:#0c55f2;fill-opacity:1">
      <path
         id="path6099"
         style="opacity:1;fill:#0c55f2;fill-opacity:1;fill-rule:evenodd;stroke:none;stroke-width:0.44979167;stroke-linecap:square;stroke-linejoin:round;stroke-miterlimit:4;stroke-dasharray:none;stroke-opacity:1;paint-order:markers fill stroke"
         d="m -1221.6792,389.20097 c 0.046,21.10256 0.032,42.20517 0.032,63.30775 l -0.032,-0.018 0.016,18.24797 c 10.7174,-0.0265 10.7238,-0.0222 16.3649,-0.014 22.5123,2.6e-4 40.7623,-18.24951 40.7623,-40.76187 0,-22.51234 -18.25,-40.76211 -40.7623,-40.76184 -5.6431,0.0172 -5.7439,0 -16.3809,0 z m 113.1446,0.0456 -35.8465,62.17076 -6.616,-13.668 c -2.6264,-4.54893 -6.6131,-4.44072 -9.1728,-0.007 -2.4711,4.2803 -4.8228,10.56389 -6.9489,14.24617 -6.637,-11.49741 -13.7608,-23.97382 -20.3988,-35.47094 h -16.7592 l 26.887,46.35823 c 4.9395,7.90789 4.9789,7.93692 10.271,7.87072 5.4655,0.0337 5.468,0.0233 10.3257,-7.89088 l 1.2085,-3.26769 1.2097,3.27009 c 5.1455,7.80505 5.185,7.82691 9.9014,7.86956 5.0693,-0.0183 5.0938,0.007 10.0354,-7.87554 l 25.9035,-44.45542 z" />
    </g>
    <g
       id="g6107"
       transform="matrix(4.4859814,0,0,4.4859814,-1742.1206,4840.8948)"
       style="fill:#0c55f2;fill-opacity:1">
      <path
         id="path6103"
         d="m 44.251562,-986.69222 v 17.69401 l 7.339087,-4.23693 v -9.25836 l -1.469677,-0.84079 c 0.01281,3.48657 0.031,9.43044 -0.01034,9.43044 -0.05472,0 -1.541508,0.8904 -1.541508,0.8904 v -11.20862 l -1.331185,-0.76171 c 0.009,2.48377 0.04399,12.56821 -0.0046,12.56821 -0.05473,0 -1.541508,0.89037 -1.541508,0.8904 v -14.34333 z"
         style="fill:#0c55f2;fill-opacity:1;stroke:none;stroke-width:0.26458332px;stroke-linecap:butt;stroke-linejoin:miter;stroke-opacity:1" />
      <path
         id="path6105"
         d="m 42.750879,-986.69222 -7.339087,4.19872 v 1.77559 l 1.521354,-0.89243 v 7.5525 l -1.521354,-0.88368 v 1.70638 l 7.339087,4.23693 z m -1.434538,2.51147 v 12.669 l -2.872693,-1.66863 v -9.31571 z"
         style="fill:#0c55f2;fill-opacity:1;stroke:none;stroke-width:0.26458332px;stroke-linecap:butt;stroke-linejoin:miter;stroke-opacity:1" />
    </g>
    <g
       id="g6127"
       transform="translate(1101.2257,957.7542)"
       style="fill:#0c55f2;fill-opacity:1">
      <rect
         transform="rotate(-45)"
         y="-2034.6619"
         x="-1348.4785"
         height="30.317303"
         width="11.753112"
         id="rect6109"
         style="fill:#0c55f2;fill-opacity:1;fill-rule:evenodd;stroke:none;stroke-width:0.62301779;stroke-opacity:1" />
      <path
         id="path6111"
         d="m -2394.3953,-543.14233 0.01,0.009 v -0.009 z m -12.3672,4.2539 v 61.16514 h 12.3761 v -48.78901 z"
         style="fill:#0c55f2;fill-opacity:1;fill-rule:evenodd;stroke:none;stroke-width:0.93912572;stroke-opacity:1" />
      <rect
         y="1834.7379"
         x="-1623.2899"
         height="24.752296"
         width="12.376148"
         id="rect6113"
         style="fill:#0c55f2;fill-opacity:1;fill-rule:evenodd;stroke:none;stroke-width:0.57766914;stroke-opacity:1"
         transform="rotate(60)" />
      <rect
         transform="rotate(120)"
         style="fill:#0c55f2;fill-opacity:1;fill-rule:evenodd;stroke:none;stroke-width:0.57766914;stroke-opacity:1"
         id="rect6115"
         width="12.376148"
         height="24.752296"
         x="762.03668"
         y="2324.8374" />
      <rect
         y="1834.7379"
         x="-1653.7859"
         height="24.752296"
         width="12.376148"
         id="rect6117"
         style="fill:#0c55f2;fill-opacity:1;fill-rule:evenodd;stroke:none;stroke-width:0.57766914;stroke-opacity:1"
         transform="rotate(60)" />
      <rect
         transform="rotate(120)"
         style="fill:#0c55f2;fill-opacity:1;fill-rule:evenodd;stroke:none;stroke-width:0.57766914;stroke-opacity:1"
         id="rect6119"
         width="12.376148"
         height="24.752296"
         x="792.53271"
         y="2324.8374" />
      <rect
         y="-502.47556"
         x="-2437.2588"
         height="24.752296"
         width="12.376148"
         id="rect6121"
         style="fill:#0c55f2;fill-opacity:1;fill-rule:evenodd;stroke:none;stroke-width:0.57766914;stroke-opacity:1" />
      <rect
         style="fill:#0c55f2;fill-opacity:1;fill-rule:evenodd;stroke:none;stroke-width:0.62301779;stroke-opacity:1"
         id="rect6123"
         width="11.753112"
         height="30.317303"
         x="-1334.6877"
         y="-2020.8711"
         transform="rotate(-45)" />
      <path
         id="path6125"
         d="m -2344.7687,-493.51574 -8.3107,8.31077 11.6936,11.69328 8.3825,-8.23867 z"
         style="fill:#0c55f2;fill-opacity:1;fill-rule:evenodd;stroke:none;stroke-width:0.62301779;stroke-opacity:1" />
    </g>
    <g
       id="g6133"
       transform="matrix(0.91050862,0,0,0.91050862,1205.9096,994.7911)"
       style="fill:#0c55f2;fill-opacity:1">
      <path
         id="path6129"
         d="m -2882.3047,-637.20346 c -12.9347,0.46929 -24.9943,6.65391 -32.9231,16.88422 -0.036,0.0507 -0.071,0.10156 -0.1064,0.15246 v 13.55058 c 1.5838,-4.24535 3.9332,-8.16408 6.9313,-11.56155 l -10e-5,49.08534 c 1.5187,2.63043 4.2943,4.66714 6.7754,6.03739 l -0.015,-0.0114 c -2.4915,-1.72459 -4.7619,-3.74838 -6.7604,-6.02599 -2.9971,-3.39439 -5.3463,-7.30953 -6.9313,-11.55124 v 13.51545 c 0.035,0.0486 0.071,0.0972 0.1064,0.14573 0.3645,0.50127 0.7395,0.99473 1.125,1.48003 0.5486,0.62357 1.1148,1.23135 1.6981,1.82261 l 0.023,0.0243 c 0.4084,0.45731 0.8263,0.90597 1.2536,1.34567 0.5967,0.55463 1.2088,1.09245 1.8356,1.61282 0.032,0.0276 0.063,0.0552 0.095,0.0827 0.4412,0.404 0.8907,0.79889 1.3482,1.18441 0.639,0.48417 1.2912,0.95065 1.9559,1.3989 0.055,0.0394 0.1098,0.0787 0.1649,0.11782 0.4694,0.35009 0.9457,0.69071 1.4288,1.02164 0.6684,0.40766 1.3477,0.79727 2.0371,1.1684 0.089,0.0516 0.1783,0.10298 0.2677,0.15399 0.4879,0.29263 0.9815,0.5757 1.4805,0.84904 0.6853,0.32846 1.379,0.63898 2.0805,0.93123 0.1329,0.0603 0.266,0.11985 0.3995,0.17878 0.4968,0.23371 0.998,0.45803 1.5033,0.67284 0.6893,0.24845 1.3847,0.47952 2.0856,0.69297 0.1856,0.0629 0.3717,0.1246 0.5581,0.18502 0.4962,0.17489 0.9954,0.34079 1.4976,0.49763 0.6831,0.17077 1.3703,0.32499 2.0609,0.46252 0.2407,0.0563 0.4818,0.11056 0.7234,0.16277 0.4892,0.11873 0.9803,0.22899 1.4733,0.33073 0.6667,0.0966 1.3356,0.17775 2.0061,0.24339 0.3351,0.0445 0.6707,0.0852 1.0067,0.12197 0.4389,0.0601 0.8787,0.11348 1.3193,0.16018 0.4983,0.0263 0.9971,0.044 1.496,0.0532 v -6.63784 -73.94741 z m -2.4045,6.79492 c -0.2164,0.0243 -0.4326,0.0505 -0.6486,0.0786 0.216,-0.0281 0.4322,-0.0543 0.6486,-0.0786 z m -4.0308,0.66768 v 72.24672 c -4.6108,-1.01525 -8.9849,-2.90258 -12.887,-5.56037 v -61.09756 c 3.8999,-2.66782 8.2742,-4.56485 12.887,-5.58879 z"
         style="fill:#0c55f2;fill-opacity:1;stroke:none;stroke-width:1.21009886px;stroke-linecap:butt;stroke-linejoin:miter;stroke-opacity:1" />
      <path
         id="path6131"
         d="m -2875.5728,-636.92441 v 6.65901 73.28133 6.6771 c 1.1845,-0.12965 2.3632,-0.30774 3.5331,-0.53382 0.9842,-0.21523 1.9606,-0.46446 2.9275,-0.74724 0.4344,-0.10376 0.8672,-0.21419 1.2982,-0.33123 1.3904,-0.43022 2.7584,-0.92969 4.0989,-1.49656 0.5355,-0.24538 1.066,-0.50158 1.5911,-0.76843 v -0.003 c 0.7894,-0.35282 1.5682,-0.72901 2.3353,-1.12808 0.3823,-0.2264 0.7611,-0.45862 1.1363,-0.69659 0.8303,-0.47234 1.6448,-0.97181 2.4423,-1.49759 0.047,-0.0288 0.094,-0.0578 0.1416,-0.0868 1.2013,-0.82176 2.3608,-1.70309 3.4741,-2.64068 1.1131,-0.93766 2.1786,-1.9304 3.1926,-2.9745 1.0142,-1.04408 1.9756,-2.13822 2.8805,-3.27834 0.9047,-1.14016 1.7519,-2.32486 2.5383,-3.54965 0.4658,-0.75766 0.9084,-1.52938 1.3271,-2.31408 v -42.60979 c -0.6278,-1.13429 -1.3057,-2.24006 -2.0319,-3.31401 -0.8218,-1.20119 -1.7031,-2.36053 -2.6407,-3.47369 -0.6133,-0.70213 -1.2489,-1.38444 -1.9058,-2.04587 l -0.01,-0.008 c 0.01,2.80403 0.01,7.22344 0.016,10.72801 l 0.01,0.0169 c 0.026,14.03805 0.047,28.49039 0.016,38.80072 -1.9126,3.11201 -4.2749,5.92402 -7.0104,8.34472 v -55.44261 -8.34729 c -0.3041,-0.22342 -0.6111,-0.4429 -0.9209,-0.65836 -1.2248,-0.78646 -2.4881,-1.51118 -3.7853,-2.17144 -0.4139,-0.19309 -0.8308,-0.37967 -1.2505,-0.55967 v 0 l -0.01,-0.003 c 0,1.45344 0.01,5.46016 0.012,7.45173 l 0.01,0.005 c 0.048,20.95185 0.098,53.98921 -0.01,64.01263 -2.2055,1.27971 -4.5373,2.32827 -6.9582,3.12899 v -70.27839 -6.93343 c -1.3773,-0.38122 -2.7725,-0.69458 -4.1806,-0.93895 -0.7576,-0.11214 -1.518,-0.20433 -2.2805,-0.27647 z"
         style="fill:#0c55f2;fill-opacity:1;stroke:none;stroke-width:1.27986121px;stroke-linecap:butt;stroke-linejoin:miter;stroke-opacity:1" />
    </g>
    <g
       transform="matrix(1.1442745,0,0,1.1442745,3487.0997,1851.9314)"
       id="g6144">
      <g
         style="fill:#0c55f2;fill-opacity:1"
         transform="matrix(5.9999375,0,0,5.9999375,-2226.0004,4467.2836)"
         id="g6139">
        <path
           id="path6135"
           d="m -136.29984,-985.65248 c 2.6751,0.1378 5.12333,1.4285 5.15098,5.151 -0.0506,2.7252 -2.07875,4.5755 -4.0164,4.629 v -6.505 c -0.0105,-1.2574 -1.70015,-1.2574 -1.72455,0 v 7.66231 c 0.0302,0.4055 0.39063,0.65388 0.83958,0.65807 2.91742,-0.0358 6.67033,-1.83358 6.70535,-6.70538 -0.0574,-4.3973 -3.36044,-6.4993 -6.97764,-6.5238 -0.77681,0.023 -0.78892,1.6111 0.0227,1.6338 z"
           style="fill:#0c55f2;fill-opacity:1;stroke:none;stroke-width:0.25672555px;stroke-linecap:butt;stroke-linejoin:miter;stroke-opacity:1" />
        <path
           style="fill:#0c55f2;fill-opacity:1;stroke:none;stroke-width:0.1724567px;stroke-linecap:butt;stroke-linejoin:miter;stroke-opacity:1"
           d="m -129.34482,-978.65018 c -0.004,-0.8868 1.73756,-0.9373 1.75295,0 v 1.331 c 0.0303,1.4633 1.64627,1.4634 1.64627,1.4634 0,0 1.6085,-10e-5 1.5548,-1.4634 v -5.3431 c 0.0232,-0.8812 1.73651,-0.8774 1.76822,0 l 0.0457,5.3431 c 0.0771,1.4633 1.63102,1.4634 1.63102,1.4634 0,0 1.63206,-10e-5 1.58528,-1.4634 v -9.2984 c -9.3e-4,-0.8713 1.71985,-0.912 1.72248,0 v 9.2984 c 0,0 0.0679,3.26205 -3.30776,3.26208 -1.08993,-3e-5 -2.15107,-0.71277 -2.56086,-1.11275 -0.50073,0.41157 -1.3986,1.11272 -2.43891,1.11275 -3.43747,-3e-5 -3.39922,-3.26208 -3.39922,-3.26208 z"
           id="path6137" />
      </g>
    </g>
    <g
       style="fill:#0c55f2;fill-opacity:1"
       id="g6148"
       transform="matrix(0.97326222,0,0,0.97326222,-243.84101,-315.5494)">
      <path
         d="m -1221.6792,389.20097 c 0.046,21.10256 0.032,42.20517 0.032,63.30775 l -0.032,-0.018 0.016,18.24797 c 10.7174,-0.0265 10.7238,-0.0222 16.3649,-0.014 22.5123,2.6e-4 40.7623,-18.24951 40.7623,-40.76187 0,-22.51234 -18.25,-40.76211 -40.7623,-40.76184 -5.6431,0.0172 -5.7439,0 -16.3809,0 z m 108.1195,8.76098 -30.8214,53.45538 -6.616,-13.668 c -2.6264,-4.54893 -6.6131,-4.44072 -9.1728,-0.007 -2.4711,4.2803 -4.8228,10.56389 -6.9489,14.24617 -6.637,-11.49741 -13.7608,-23.97382 -20.3988,-35.47094 h -16.7592 l 26.887,46.35823 c 4.9395,7.90789 4.9789,7.93692 10.271,7.87072 5.4655,0.0337 5.468,0.0233 10.3257,-7.89088 l 1.2085,-3.26769 1.2097,3.27009 c 5.1455,7.80505 5.185,7.82691 9.9014,7.86956 5.0693,-0.0183 5.0938,0.007 10.0354,-7.87554 l 24.9538,-42.82556 c 0.8843,-1.60111 0.9497,-2.28687 0.9497,-3.83137 v -18.21408 c -0.024,-8.61917 -5.0251,-0.0191 -5.0251,-0.0191 z"
         style="opacity:1;fill:#0c55f2;fill-opacity:1;fill-rule:evenodd;stroke:none;stroke-width:0.44979167;stroke-linecap:square;stroke-linejoin:round;stroke-miterlimit:4;stroke-dasharray:none;stroke-opacity:1;paint-order:markers fill stroke"
         id="path6146" />
    </g>
  </g>
</svg>
